<svg
  xmlns="http://www.w3.org/2000/svg"
  xmlns:xlink="http://www.w3.org/1999/xlink"
  aria-hidden="true"
  focusable="false"
  width="1.3em"
  style="
    -ms-transform: rotate(360deg);
    -webkit-transform: rotate(360deg);
    transform: rotate(360deg);
  "
  preserveAspectRatio="xMidYMid meet"
  viewBox="0 0 32 32"
>
  <path
    d="M10.255 7.26c0 .319-.025.849-.337 1.193c-.344.317-.871.344-1.188.344H5.365c-.973 0-1.557 0-1.948.057c-.213.025-.473.129-.609.181c-.052.027-.052 0-.025-.025l7.688-7.88c.025-.027.052-.027.025.025a2.897 2.897 0 0 0-.188.609c-.052.396-.052.984-.052 1.964zm7.13 23.823c-.891-.583-1.364-1.348-1.552-1.828a3.872 3.872 0 0 1-.287-1.457c0-2.213 1.792-4 4-4.005a1.18 1.18 0 0 1 1.183 1.192c.005.428-.229.823-.604 1.032a1.48 1.48 0 0 1-.448.161c-.131.025-.631.077-.871.292c-.26.213-.473.557-.473.927c0 .401.156.771.421 1.036c.475.48 1.105.745 1.792.745a3.252 3.252 0 0 0 3.235-3.265c0-1.62-1.079-3.052-2.5-3.688c-.208-.104-.552-.188-.869-.265a10.346 10.346 0 0 0-.787-.136c-1.104-.129-3.871-1.005-4.052-3.473c0 0-.819 3.713-2.448 4.724a2.773 2.773 0 0 1-.604.213c-.24.052-.5.077-.584.077c-2.656.163-5.468-.687-7.416-2.708c0 0-1.319-1.083-2-4.135c-.157-.745-.475-2.073-.657-3.319c-.083-.453-.109-.796-.135-1.115c0-1.301.792-2.176 1.792-2.307h5.364c.921 0 1.453-.24 1.792-.557c.448-.427.552-1.036.552-1.751V1.874c.131-.984 1-1.807 2.292-1.807h.629c.261 0 .579.025.871.057c.208.025.391.077.708.156c1.604.401 1.948 2.041 1.948 2.041s3.025.532 4.552.797c1.448.265 5.025.505 5.708 4.14c1.604 8.652.636 17.032.552 17.032c-1.129 8.172-7.864 7.776-7.864 7.776a5.495 5.495 0 0 1-3.24-.985zm6.052-17.375c-.864-.083-1.604.265-1.864.928c-.057.135-.109.291-.084.369c.032.083.084.109.136.135c.312.163.839.24 1.604.319c.76.077 1.292.135 1.631.077c.052 0 .109-.025.161-.104c.052-.077.025-.239.025-.369c-.083-.719-.74-1.251-1.609-1.355z"
    fill="#626262"
  />
  <rect x="0" y="0" width="32" height="32" fill="rgba(0, 0, 0, 0)" />
</svg>
