<svg
  xmlns="http://www.w3.org/2000/svg"
  xmlns:xlink="http://www.w3.org/1999/xlink"
  aria-hidden="true"
  focusable="false"
  width="1.3em"
  style="
    -ms-transform: rotate(360deg);
    -webkit-transform: rotate(360deg);
    transform: rotate(360deg);
  "
  preserveAspectRatio="xMidYMid meet"
  viewBox="0 0 448 512"
>
  <path
    d="M400 32H48C21.5 32 0 53.5 0 80v352c0 26.5 21.5 48 48 48h352c26.5 0 48-21.5 48-48V80c0-26.5-21.5-48-48-48zM21.2 229.2H21c.1-.1.2-.3.3-.4c0 .1 0 .3-.1.4zm218 53.9V384h-31.4V281.3L128 128h37.3c52.5 98.3 49.2 101.2 59.3 125.6c12.3-27 5.8-24.4 60.6-125.6H320l-80.8 155.1z"
    fill="#626262"
  />
  <rect x="0" y="0" width="448" height="512" fill="rgba(0, 0, 0, 0)" />
</svg>
