<svg
  xmlns="http://www.w3.org/2000/svg"
  xmlns:xlink="http://www.w3.org/1999/xlink"
  aria-hidden="true"
  focusable="false"
  width="1.3em"
  style="
    -ms-transform: rotate(360deg);
    -webkit-transform: rotate(360deg);
    transform: rotate(360deg);
  "
  preserveAspectRatio="xMidYMid meet"
  viewBox="0 0 32 32"
>
  <path
    d="M25.083 13.677l-7.526 7.229a2.201 2.201 0 0 1-3.042 0l-7.531-7.229c-.875-.833-.901-2.224-.063-3.099s2.224-.906 3.099-.068l6.016 5.76l6.021-5.76a2.19 2.19 0 0 1 3.099.068a2.18 2.18 0 0 1-.057 3.099zM31.859 3.62c-.396-1.146-1.5-1.917-2.719-1.917H2.906c-1.203 0-2.292.75-2.719 1.875a2.912 2.912 0 0 0-.188 1.031v9.656l.115 1.922c.464 4.37 2.729 8.193 6.24 10.854c.063.047.125.094.193.141l.036.031a15.948 15.948 0 0 0 6.26 2.76c1.047.214 2.12.323 3.188.323c.984 0 1.974-.094 2.943-.276c.12-.036.234-.057.354-.078c.031 0 .063-.021.099-.036a16.072 16.072 0 0 0 6.01-2.703l.036-.042l.182-.141c3.5-2.656 5.766-6.479 6.245-10.865l.099-1.917V4.592c0-.333-.042-.667-.161-.99z"
    fill="#626262"
  />
  <rect x="0" y="0" width="32" height="32" fill="rgba(0, 0, 0, 0)" />
</svg>
