<svg width="512" height="124" xmlns="http://www.w3.org/2000/svg" preserveAspectRatio="xMidYMid"><path d="M299.665 6.016c1.563-2.76 3.953-5.12 7.074-5.996 1.409-.026 2.818-.022 4.23-.013 1.916.885 3.597 2.271 4.636 4.124.823 1.858.379 3.804-.044 5.692-.546 1.14-.96 2.342-1.356 3.54a25.15 25.15 0 0 0-.898 2.205 30.565 30.565 0 0 0-.88 2.2 33.71 33.71 0 0 0-.88 2.202 39.71 39.71 0 0 0-.885 2.205 43.244 43.244 0 0 0-.88 2.201 43.244 43.244 0 0 0-.881 2.201 39.463 39.463 0 0 0-.876 2.201 36.383 36.383 0 0 0-.88 2.201 36.382 36.382 0 0 0-.881 2.201 36.383 36.383 0 0 0-.88 2.201 36.383 36.383 0 0 0-.88 2.201 36.383 36.383 0 0 0-.881 2.201 40.928 40.928 0 0 0-.88 2.201 36.508 36.508 0 0 0-.881 2.205 32.59 32.59 0 0 0-.876 2.197 36.435 36.435 0 0 0-.885 2.201 36.456 36.456 0 0 0-.876 2.205 36.666 36.666 0 0 0-1.373 3.592c5.55-4.168 11.005-8.482 16.723-12.422.585-.312 1.18-.62 1.77-.938 1.945-.796 4.067-.651 6.118-.51 1.453.832 2.83 1.827 3.68 3.306 1.074 2.703.599 5.89-1.18 8.183-1.113 1.391-2.46 2.562-3.798 3.728-.617.414-1.215.854-1.792 1.321-3.033 2.082-5.934 4.354-8.87 6.568.493.73.982 1.47 1.47 2.205.29.454.581.903.885 1.352.67 1.21 1.422 2.368 2.201 3.512.933 1.678 2.02 3.258 3.09 4.851.41.735.832 1.466 1.29 2.18.304.444.608.893.929 1.338.858 1.584 1.765 3.165 2.267 4.912.321 1.29-.229 2.558-.467 3.808-1.33 2.104-3.077 4.032-5.41 5.027-1.606.524-3.222.599-4.815-.013-.978-.687-2.003-1.37-2.637-2.408-2.223-3.354-4.446-6.713-6.678-10.063-.295-.445-.585-.885-.88-1.325-.295-.445-.586-.89-.88-1.325-.296-.445-.586-.89-.881-1.325-.295-.445-.594-.894-.89-1.33-1.87-3.235-4.155-6.202-6.057-9.41.04.14.115.426.15.567-.392.717-.73 1.461-1.021 2.223-.308.73-.599 1.466-.859 2.21-.32.722-.62 1.457-.884 2.2a32.703 32.703 0 0 0-.876 2.202 28.615 28.615 0 0 0-.876 2.2c-1.572 3.707-2.826 7.559-4.838 11.063-1.655 1.836-3.324 3.9-5.837 4.534-1.114.145-2.21.748-3.346.431-.898-.224-1.804-.374-2.716-.515-1.325-1.149-2.905-2.245-3.424-4.014-1.1-2.479.378-5.054 1.06-7.43.322-.727.63-1.458.907-2.202.304-.73.603-1.461.872-2.2.308-.727.612-1.462.885-2.202.303-.726.607-1.461.88-2.2.308-.732.603-1.462.88-2.206.313-.722.604-1.457.876-2.197a44.94 44.94 0 0 0 .88-2.2c.309-.732.608-1.462.881-2.206.313-.722.608-1.457.88-2.201.313-.722.608-1.457.881-2.201.313-.722.608-1.457.88-2.197.313-.726.608-1.461.88-2.205.309-.726.608-1.457.881-2.201.313-.726.608-1.457.88-2.201.313-.726.608-1.457.881-2.201.313-.726.608-1.457.88-2.201.313-.726.608-1.462.876-2.201.317-.726.612-1.462.88-2.201.313-.726.608-1.462.881-2.205.313-.722.612-1.458.88-2.201.313-.722.608-1.458.881-2.201.313-.722.607-1.457.88-2.201.313-.722.608-1.457.88-2.201.313-.722.608-1.457.877-2.201a130.954 130.954 0 0 0 1.76-4.402c.318-.727.612-1.457.885-2.201.313-.727.608-1.457.88-2.201.313-.727.608-1.457.877-2.201.312-.727.612-1.457.88-2.201.313-.727.612-1.457.88-2.201.313-.722.612-1.457.877-2.201.669-1.594 1.311-3.2 1.914-4.82zM26.708 11.104C31.783 9.357 37.21 9.48 42.498 9.74c.862.171 1.716.396 2.597.48 2.918.88 5.753 2.016 8.39 3.56 3.314 2.422 6.299 5.367 8.328 8.967.493 1.317 1.026 2.62 1.528 3.931.717 3.025.62 6.137.532 9.223-.29 3.437-1.329 6.748-2.32 10.036a29.748 29.748 0 0 0-1.338 3.535c-.695 1.378-1.175 2.857-1.94 4.2 1.36-1.788 3.08-3.254 4.582-4.918 2.451-2.953 5.313-5.529 7.914-8.35 3.06-3.68 6.749-6.788 9.782-10.495 5.502-5.383 10.437-11.308 16.098-16.538.91-.58 1.813-1.18 2.711-1.787 2.258-1.272 4.856-1.224 7.37-1.004 1.967.973 3.908 2.404 4.696 4.534.73 1.66.405 3.509.405 5.26-.651 1.185-1.233 2.409-1.884 3.593-.313.444-.616.898-.911 1.356-1.831 1.848-3.368 3.966-5.27 5.749-2.16 2.249-4.45 4.393-6.43 6.81-2.98 3.173-6.212 6.123-9.007 9.464-2.236 2.315-4.525 4.573-6.735 6.915-2.364 2.857-5.12 5.357-7.664 8.051.273.595.546 1.189.823 1.783.52 1.642 1.043 3.284 1.748 4.86.55 1.624 1.052 3.27 1.76 4.842.55 1.625 1.053 3.27 1.761 4.842.55 1.625 1.052 3.271 1.761 4.838.55 1.629 1.052 3.275 1.76 4.842.547 1.625 1.062 3.267 1.757 4.838.392 1.206.797 2.417 1.365 3.561.048.203.14.603.19.801.519 1.325.937 2.69 1.491 4.006.243.595.52 1.176.81 1.752 1.418 2.18 4.107 3.214 6.625 3.253 130.158-.004 260.316.005 390.478-.004 1.175-.013 2.293.431 3.464.528.92.467 1.845.929 2.778 1.374.748.836 1.32 1.796 1.87 2.773a53.677 53.677 0 0 1-.021 5.12c-.198.462-.383.924-.546 1.4-1.074 1.892-2.672 3.415-4.52 4.546-1.863.564-3.707 1.378-5.67 1.435-131.488.005-262.975 0-394.462.005-1.593.048-3.108-.568-4.706-.506-1.628-.617-3.372-1.022-4.82-2.034-1.875-1.105-2.94-3.064-4.186-4.767-.528-1.053-1.061-2.096-1.572-3.152-.343-.885-.69-1.77-1.109-2.624a51.477 51.477 0 0 0-.185-.792c-.95-2.514-1.827-5.062-2.848-7.554-.559-1.633-1.048-3.297-1.805-4.855l-.193-.793c-.52-1.338-.93-2.716-1.523-4.019-.392-1.197-.802-2.39-1.321-3.535-.55-1.624-1.057-3.27-1.765-4.837-.55-1.625-1.061-3.267-1.757-4.834-.396-1.206-.8-2.412-1.364-3.552l-.194-.797c-.52-1.338-.929-2.716-1.523-4.019-.392-1.197-.801-2.39-1.325-3.535-.62-1.915-1.294-3.812-2.087-5.66a77.092 77.092 0 0 1-.317 1.703c-.37.717-.69 1.457-.968 2.214a43.132 43.132 0 0 0-.872 2.201 43.151 43.151 0 0 0-.884 2.197 44.94 44.94 0 0 0-.88 2.2 47.807 47.807 0 0 0-.886 2.202 35.42 35.42 0 0 0-.871 2.21c-.815 1.725-1.514 3.5-2.188 5.282a33.76 33.76 0 0 0-.885 2.2 35.31 35.31 0 0 0-.885 2.202 35.264 35.264 0 0 0-.88 2.2 35.188 35.188 0 0 0-.885 2.197 37.449 37.449 0 0 0-.88 2.197c-.317.73-.612 1.461-.88 2.21-.375.854-.71 1.721-1.053 2.588-.286.594-.572 1.189-.854 1.783-1.39 2.254-2.962 4.455-5.242 5.885-.22.12-.652.361-.868.485-1.712.457-3.433 1.223-5.242.937-.749-.158-1.48-.365-2.232-.488-1.316-.744-2.553-1.63-3.588-2.738a51.462 51.462 0 0 0-1.003-1.884c-.414-2.985.18-5.96 1.44-8.677.316-.722.615-1.452.888-2.196.317-.727.612-1.457.88-2.201.318-.727.613-1.457.881-2.201.317-.722.616-1.453.885-2.197a40.79 40.79 0 0 0 .88-2.196c.313-.731.612-1.462.885-2.201.308-.731.608-1.462.88-2.201.313-.727.608-1.462.885-2.201.308-.727.608-1.462.872-2.21 1.131-2.448 2.082-4.974 3.068-7.484.317-.726.62-1.457.89-2.2.312-.727.611-1.458.88-2.202.317-.721.612-1.457.88-2.196.317-.726.616-1.457.885-2.201.312-.726.612-1.457.88-2.201.313-.726.612-1.457.885-2.201.308-.726.608-1.457.88-2.197.313-.726.608-1.461.88-2.205 1.29-3.029 2.404-6.128 3.245-9.315.625-2.31.973-4.877.088-7.162-1.378-2.386-3.689-4.168-6.383-4.793-2.817-.397-5.762-.18-8.39.99-.594.273-1.184.559-1.752.88-4.543 2.857-8.438 7.299-9.574 12.665-.4 1.263-.238 2.615-.45 3.913.12 1.765.225 3.548 1.123 5.129a12.281 12.281 0 0 0 5.3 4.82c.911.396 1.823.805 2.782 1.083a13.673 13.673 0 0 1 3.623 2.711c.101.238.3.718.396.955.185.467.375.93.577 1.391.638 4.178-2.219 8.087-5.93 9.72-3.385.982-7.091.806-10.49-.035a26.729 26.729 0 0 0-2.2-.925 38.61 38.61 0 0 0-2.254-1.32c-3.465-2.346-5.97-5.758-8.065-9.315-.422-1.056-.818-2.122-1.303-3.147C.31 52.43-.219 48.204.085 43.969c.585-3.292 1.038-6.655 2.275-9.807.476-1.021.88-2.074 1.303-3.117.62-1.017 1.246-2.034 1.818-3.077.599-.876 1.189-1.752 1.77-2.641 2.905-3.72 6.299-7.06 10.195-9.746.449-.3.902-.603 1.347-.916 1.73-.942 3.495-1.813 5.269-2.667.89-.273 1.77-.577 2.646-.894zM474.842 23.1c2.214-.876 4.613-.797 6.95-.639 1.418.674 2.633 1.673 3.677 2.84.1.233.303.708.4.946.18.471.379.946.59 1.413.128 1.426-.172 2.813-.533 4.186a53.083 53.083 0 0 0-.902 2.677c-.722 1.422-1.422 2.861-1.963 4.362-.251.431-.498.863-.744 1.294 1.83.326 3.702.23 5.555.352.462.194.938.375 1.422.542 1.206.775 2.531 1.633 2.918 3.12.824 1.85.326 3.905-.114 5.785-1.092 2.518-3.482 3.935-5.899 4.966-3.204.783-6.506.47-9.772.523l-.163 1.004c-.37.726-.691 1.475-.973 2.24a40.804 40.804 0 0 0-.871 2.202 37.574 37.574 0 0 0-.88 2.2 37.575 37.575 0 0 0-.881 2.202 37.576 37.576 0 0 0-.88 2.2 36.508 36.508 0 0 0-.881 2.206 32.59 32.59 0 0 0-.876 2.197 37.569 37.569 0 0 0-.89 2.196c-.325.757-.629 1.523-.866 2.311-.146.15-.44.44-.586.59 3.834.163 7.717-.348 11.485.541.898.454 1.8.907 2.703 1.37.493.779.999 1.549 1.5 2.324-.008 1.77.322 3.64-.409 5.313-.352.946-.964 1.76-1.5 2.601-1.154.846-2.312 1.69-3.601 2.316-3.716.995-7.598.493-11.393.616-3.825-.14-7.734.41-11.471-.616-2.32-1.008-4.345-2.641-5.437-4.97-.229-1.84-.942-3.724-.215-5.55.37-2.06 1.245-3.945 2.05-5.855.309-.727.604-1.457.872-2.201.313-.727.612-1.457.885-2.201.308-.727.603-1.457.876-2.201.313-.727.608-1.457.88-2.201.313-.727.608-1.457.877-2.201 1.219-2.857 2.236-5.802 3.543-8.624-2.94.19-6.515-.436-7.99-3.323-.202-1.145-.713-2.267-.501-3.447.171-.903.392-1.796.484-2.707 1.087-2.333 3.108-3.98 5.44-4.975 2.545-.783 5.213-.554 7.836-.677 1.48-.582 1.462-2.699 2.197-3.98.312-.722.607-1.457.88-2.2.313-.727.612-1.458.885-2.202.313-.726.612-1.466.867-2.218.432-.89.872-1.774 1.312-2.66 1.241-1.452 2.597-2.812 4.107-3.987zm-340.3 16.555c2.14-.21 4.297-.07 6.44-.008 1.859.651 3.716 1.303 5.424 2.297 1.765 1.568 3.434 3.271 4.543 5.384.515 2.02 1.162 4.072.955 6.185-.295 2.399-1.091 4.692-1.884 6.964-2.39 5.45-4.525 11.014-6.682 16.556 3.957.118 7.963-.348 11.854.515 1.436.62 2.668 1.584 3.68 2.773.916 2.263.529 4.723-.105 7.003-1.145 1.436-2.456 2.734-4.037 3.68-.92.278-1.83.59-2.716.965a368.7 368.7 0 0 1-20.931.008c-1.475-.783-3.05-1.448-4.292-2.588-.902-.986-1.492-2.201-2.122-3.359-.066-.964-.167-1.923-.414-2.852.282-.916.366-1.871.414-2.822.066-.101.203-.308.273-.41.203-.739.445-1.465.665-2.2.651-1.444 1.228-2.923 1.791-4.402.317-.727.617-1.457.885-2.201.317-.727.612-1.457.88-2.201.318-.722.617-1.453.885-2.192.313-.731.608-1.466.885-2.206.313-.726.608-1.457.88-2.196.925-1.818 1.387-3.804 1.176-5.846-.7-.74-1.506-1.356-2.373-1.88a48.911 48.911 0 0 1-1.818-.163c-3.627-.303-6.413 2.417-8.35 5.15-.51.837-.982 1.7-1.444 2.567-3.456 7.831-6.423 15.87-9.658 23.797a37.09 37.09 0 0 0-1.607 2.738c-1.474 1.748-3.218 3.27-5.379 4.094-.788.097-1.563.246-2.329.431-1.144.313-2.24-.29-3.363-.422-1.426-.608-2.619-1.598-3.614-2.77-.136-.241-.418-.725-.554-.968-.335-2.513-.049-5.049.99-7.368.326-.722.63-1.458.902-2.201.313-.727.608-1.458.876-2.201.313-.727.608-1.457.88-2.201.313-.727.608-1.457.881-2.201.313-.727.608-1.457.876-2.201.317-.727.612-1.457.88-2.201a33.66 33.66 0 0 0 .877-2.201c2.654-6.603 5.335-13.202 7.914-19.836.29-.585.581-1.17.876-1.756 1.189-1.915 2.985-3.253 5.01-4.19 2.32-.093 4.74-.401 6.95.505 1.449.88 2.58 2.135 3.452 3.58.62-.445 1.254-.872 1.88-1.308 1.21-.665 2.368-1.413 3.578-2.073 1.708-.617 3.43-1.233 5.22-1.568zm50.685.498c3.443-.78 6.99-.643 10.499-.524 1.946.22 3.83.797 5.683 1.413 1.888.845 3.614 1.985 5.322 3.143a139.091 139.091 0 0 1 3.12 3.121c.573.911 1.172 1.8 1.788 2.685.453.885.898 1.774 1.356 2.655.59 1.87 1.03 3.79 1.378 5.718.114 1.747.04 3.5.057 5.251.119 2.228-.757 4.328-.986 6.52a89.097 89.097 0 0 0-1.347 4.006c-2.184 5-5.164 9.715-9.332 13.294-2.443 1.765-5.093 3.23-8.008 4.054-5.07.898-10.256.563-15.389.515-3.526-.37-7.21-.995-10.085-3.236-2.685-2.324-4.842-5.203-6.25-8.465a34.54 34.54 0 0 0-.454-1.347c-1.598-5.872-1.272-12.11.449-17.916.339-.73.638-1.483.894-2.245a88.207 88.207 0 0 1 1.77-3.535c2.53-4.15 5.92-7.699 9.785-10.626.453-.304.907-.607 1.356-.916 1.44-.783 2.905-1.514 4.38-2.231 1.342-.423 2.685-.863 4.014-1.334zm49.307 1.976c2.782-1.153 5.634-2.31 8.667-2.518 3.557-.096 7.202-.325 10.587.978 2.68 1.153 5.172 2.764 7.136 4.947 3.2 4.222 4.067 9.874 2.694 14.932a26.51 26.51 0 0 0-.92 2.192c-.313.462-.612.933-.903 1.409-.594.612-1.197 1.215-1.791 1.827-.608.303-1.21.62-1.81.942-2.892 1.131-6.51.607-8.522-1.898-.929-1.914-.37-4.089-.717-6.11-.15-.787-.212-1.589-.247-2.39-.563-1.06-1.422-2.122-2.69-2.276-1.681-.04-3.503-.277-4.978.731-2.095.99-3.517 2.857-4.803 4.71a77.31 77.31 0 0 0-1.047 1.708c-.727 1.54-1.387 3.152-1.48 4.873-.695 2.734-.237 5.846 1.484 8.117 1.849 1.928 4.68 2.263 7.18 2.699 5.727.097 11.462-.009 17.194.044 1.474.158 2.918.572 4.353.95.793.582 1.576 1.176 2.311 1.84.12.247.361.745.48.996.115.871.322 1.73.489 2.597-.238 1.307-.52 2.61-.925 3.882-.506.599-.981 1.22-1.439 1.853-.62.445-1.224.907-1.814 1.383-.215.119-.651.352-.867.47-1.607.542-3.218 1.172-4.948 1.048-8.275-.004-16.555.172-24.827-.11-.598-.224-1.21-.378-1.827-.523a38.802 38.802 0 0 0-2.645-1.044 38.396 38.396 0 0 1-3.579-2.54c-1.263-1.003-2.087-2.416-3.178-3.579a103.538 103.538 0 0 1-2.236-4.41c-2.356-6.99-1.695-14.672.898-21.5.58-1.184 1.162-2.368 1.791-3.526.48-.713.911-1.452 1.334-2.196 2.505-3.385 5.507-6.414 8.905-8.9a59.375 59.375 0 0 0 2.69-1.608zm119.223-2.46c4.57-.247 9.284-.388 13.606 1.377a22.76 22.76 0 0 1 10.517 9.43c.19.43.387.858.585 1.29.269.756.573 1.505.92 2.235 1.796 6.163 1.123 12.762-.889 18.793-.343.726-.647 1.47-.898 2.231-.7 1.488-1.435 2.954-2.205 4.402-2.382 3.892-5.446 7.391-9.35 9.808-.885.445-1.765.89-2.646 1.334-.915.277-1.822.58-2.711.92-5.05.893-10.209.554-15.315.524-1.461.074-2.84-.533-4.296-.52-1.43-.537-2.945-.89-4.257-1.69-2.47-1.475-4.358-3.702-6.061-5.974-.617-1.166-1.202-2.342-1.796-3.517-1.814-5.177-1.788-10.79-.885-16.133.193-.603.334-1.22.48-1.836.303-.88.594-1.765.867-2.654.85-1.779 1.717-3.548 2.663-5.278.308-.445.616-.894.924-1.338.458-.586.903-1.184 1.321-1.8 2.214-2.365 4.433-4.768 7.096-6.639.449-.3.894-.603 1.343-.916 3.398-1.967 7.104-3.407 10.987-4.05zm47.128.48c2.711-.877 6.145-1.163 8.399.915 1.065.85 1.72 2.056 2.337 3.24.101 1.888.044 3.781-.546 5.595a69.683 69.683 0 0 0-1.796 4.415c-.326.722-.62 1.457-.885 2.201a29.734 29.734 0 0 0-.876 2.201 114.588 114.588 0 0 0-1.76 4.402c-.322.722-.621 1.457-.885 2.201a26.519 26.519 0 0 0-.867 2.214c-.216.467-.423.938-.63 1.409-.132.414-.268.827-.41 1.237-.145.44-.285.88-.43 1.316-.164.436-.335.872-.503 1.307-.383 1.136-.488 2.355.177 3.42 1.065.996 2.557.833 3.904.833 2.03.11 3.988-.643 5.78-1.537 2.025-1.355 3.614-3.319 4.296-5.678.304-.73.599-1.466.872-2.21.308-.726.603-1.457.88-2.201.308-.726.603-1.461.88-2.201.309-.726.604-1.461.881-2.201.308-.726.603-1.461.88-2.2.309-.732.603-1.462.88-2.206.305-.727.604-1.457.877-2.197.308-.726.612-1.461.885-2.2.308-.732.603-1.471.862-2.224a60.58 60.58 0 0 1 2.206-4.41c.308-.454.607-.912.907-1.374 1.351-1.59 3.09-2.773 4.952-3.698 1.721-.123 3.455-.145 5.18-.009 1.414.683 2.629 1.678 3.672 2.84.101.233.304.704.405.942.176.466.374.933.581 1.395.251 2.861-1.052 5.516-1.884 8.183-.33.722-.634 1.457-.907 2.201a40.865 40.865 0 0 0-.876 2.201 36.383 36.383 0 0 0-.88 2.201 40.854 40.854 0 0 0-.885 2.197 44.94 44.94 0 0 0-.88 2.201 28.73 28.73 0 0 0-.867 2.21c-1.466 3.266-2.76 6.607-4.024 9.953 4.415.1 8.927-.432 13.206.96.819.792 1.787 1.522 2.228 2.618.25.832.325 1.713.559 2.558-.313 1.387-.432 2.813-.894 4.164-.832 1.303-1.897 2.426-3.227 3.223-.607.299-1.21.598-1.805.91-2.843.86-5.837.577-8.764.63-3.944-.03-7.888.088-11.828-.11-1.655-.744-3.024-1.932-4.195-3.293-.026-.189-.084-.572-.115-.761a75.002 75.002 0 0 1-2.795 2.628c-.603.286-1.201.577-1.791.867-.471.167-.934.348-1.387.542-5.498.21-11.01.198-16.507-.005-.471-.19-.938-.36-1.409-.52-1.778-.8-3.557-1.712-4.93-3.125-1.426-1.373-2.302-3.174-3.148-4.934-.638-2.135-.625-4.367-.493-6.572.423-2.087 1.154-4.094 1.85-6.106.33-.722.629-1.457.902-2.201.312-.726.607-1.457.876-2.201.312-.726.611-1.457.884-2.201.308-.726.608-1.457.88-2.201.313-.726.608-1.457.881-2.201.313-.726.608-1.457.88-2.2.313-.727.608-1.458.88-2.202.313-.726.608-1.457.881-2.2.308-.727.608-1.458.885-2.198.308-.735.608-1.47.858-2.227.564-1.188 1.158-2.364 1.752-3.54a16.618 16.618 0 0 1 4.984-4.987zM185.1 56.131c1.571-1.096 3.411-1.734 5.304-1.959 1.065-.026 2.073.392 3.125.493 1.766.854 3.183 2.311 4.085 4.041 1.325 4.613.344 9.764-2.377 13.704-1.056 1.66-2.518 3.055-4.283 3.93-2.98 1.242-6.418 1.202-9.411.023-1.184-.854-2.448-1.805-2.95-3.236-1.144-3.464-.449-7.272 1.127-10.494 1.268-2.54 3.038-4.86 5.38-6.502zm167.627-1.034c1.818-.573 3.781-1.339 5.683-.621 2.377.348 4.12 2.285 5.172 4.318 1.052 3.619.577 7.545-.92 10.97-.33.612-.673 1.22-1.034 1.81-.295.435-.581.87-.868 1.311a10.075 10.075 0 0 1-3.371 3.218c-1.559.863-3.32.986-5.045 1.224-2.676-.194-5.912-.643-7.334-3.258-1.998-3.588-.995-7.963.67-11.476 1.566-3.099 3.886-5.938 7.047-7.496zm144.508 21.169c2.21-1.4 4.79-1.66 7.347-1.405.48.19.968.366 1.47.529A12.126 12.126 0 0 1 511 79.934c1.11 2.482 1.347 5.26.453 7.853-.317.598-.62 1.206-.91 1.813-1 1.127-2.079 2.175-3.179 3.192-2.69 1.386-5.956 1.417-8.782.453-.22-.128-.665-.374-.885-.497-2.386-1.484-4.04-3.953-4.613-6.696-.08-1.267-.026-2.544 0-3.816.19-.471.37-.947.55-1.422.282-.603.577-1.202.867-1.8.894-.934 1.805-1.85 2.734-2.747z" fill="#E42E16" fill-rule="evenodd"/></svg>