<?xml version="1.0" encoding="iso-8859-1"?>
<!-- Generator: Adobe Illustrator 19.0.0, SVG Export Plug-In . SVG Version: 6.00 Build 0)  -->
<svg version="1.1" id="Layer_1" xmlns="http://www.w3.org/2000/svg" xmlns:xlink="http://www.w3.org/1999/xlink" x="0px" y="0px"
	 viewBox="0 0 503.467 503.467" style="enable-background:new 0 0 503.467 503.467;" xml:space="preserve">
<g transform="translate(5 1)">
	<path style="fill:#F2EDDA;" d="M460.067,122.733v341.333c0,18.773-15.36,34.133-34.133,34.133h-358.4
		c-18.773,0-34.133-15.36-34.133-34.133V37.4c0-18.773,15.36-34.133,34.133-34.133H340.6V88.6c0,18.773,15.36,34.133,34.133,34.133
		H460.067z"/>
	<path style="fill:#FFD0A1;" d="M460.067,122.733h-85.333c-18.773,0-34.133-15.36-34.133-34.133V3.267L460.067,122.733z"/>
	<path style="fill:#FFE079;" d="M272.333,259.267V344.6c0,4.267-3.413,8.533-8.533,8.533h-51.2c-5.12,0-8.533-4.267-8.533-8.533
		v-85.333c0-4.267,3.413-8.533,8.533-8.533h25.6h25.6C268.92,250.733,272.333,255,272.333,259.267z M238.2,327.533
		c5.12,0,8.533-3.413,8.533-8.533c0-5.12-3.413-8.533-8.533-8.533s-8.533,3.413-8.533,8.533
		C229.667,324.12,233.08,327.533,238.2,327.533z"/>
</g>
<path style="fill:#51565F;" d="M430.933,503.467h-358.4c-21.333,0-38.4-17.067-38.4-38.4V38.4C34.133,17.067,51.2,0,72.533,0H345.6
	c0.853,0,2.56,0.853,3.413,0.853l85.333,85.333c1.707,1.707,1.707,4.267,0,5.973c-1.707,1.707-4.267,1.707-5.973,0l-84.48-84.48
	H72.533c-16.213,0-29.867,13.653-29.867,29.867v426.667c0,16.213,13.653,29.867,29.867,29.867h358.4
	c16.213,0,29.867-13.653,29.867-29.867V127.147h-81.067c-21.333,0-38.4-17.067-38.4-38.4V46.08c0-2.56,1.707-4.267,4.267-4.267
	s4.267,1.707,4.267,4.267v42.667c0,16.213,13.653,29.867,29.867,29.867h85.333c2.56,0,4.267,1.707,4.267,4.267v341.333
	C469.333,486.4,452.267,503.467,430.933,503.467z M268.8,358.4h-51.2c-6.827,0-12.8-5.973-12.8-12.8v-85.333
	c0-6.827,5.973-12.8,12.8-12.8h21.333v-25.6h-12.8c-2.56,0-4.267-1.707-4.267-4.267v-34.133c0-2.56,1.707-4.267,4.267-4.267h12.8
	v-25.6h-12.8c-2.56,0-4.267-1.707-4.267-4.267V115.2c0-2.56,1.707-4.267,4.267-4.267h12.8v-25.6h-12.8
	c-2.56,0-4.267-1.707-4.267-4.267V46.933c0-2.56,1.707-4.267,4.267-4.267h12.8V12.8c0-2.56,1.707-4.267,4.267-4.267
	s4.267,1.707,4.267,4.267c0,0.853,0,0.853,0,1.707v32.427c0,2.56-1.707,4.267-4.267,4.267h-12.8v25.6h12.8
	c2.56,0,4.267,1.707,4.267,4.267V115.2c0,2.56-1.707,4.267-4.267,4.267h-12.8v25.6h12.8c2.56,0,4.267,1.707,4.267,4.267v34.133
	c0,2.56-1.707,4.267-4.267,4.267h-12.8v25.6h12.8c2.56,0,4.267,1.707,4.267,4.267v34.133c0,2.56-1.707,4.267-4.267,4.267h-25.6
	c-2.56,0-4.267,1.707-4.267,4.267V345.6c0,2.56,1.707,4.267,4.267,4.267h51.2c2.56,0,4.267-1.707,4.267-4.267v-85.333
	c0-2.56-1.707-4.267-4.267-4.267s-4.267-1.707-4.267-4.267c0-2.56,1.707-4.267,4.267-4.267c6.827,0,12.8,5.973,12.8,12.8V345.6
	C281.6,352.427,275.627,358.4,268.8,358.4z M243.2,332.8c-6.827,0-12.8-5.973-12.8-12.8c0-6.827,5.973-12.8,12.8-12.8
	S256,313.173,256,320C256,326.827,250.027,332.8,243.2,332.8z M243.2,315.733c-2.56,0-4.267,1.707-4.267,4.267
	c0,2.56,1.707,4.267,4.267,4.267s4.267-1.707,4.267-4.267C247.467,317.44,245.76,315.733,243.2,315.733z"/>
<g>
</g>
<g>
</g>
<g>
</g>
<g>
</g>
<g>
</g>
<g>
</g>
<g>
</g>
<g>
</g>
<g>
</g>
<g>
</g>
<g>
</g>
<g>
</g>
<g>
</g>
<g>
</g>
<g>
</g>
</svg>
