<?xml version="1.0" encoding="iso-8859-1"?>
<!-- Generator: Adobe Illustrator 19.0.0, SVG Export Plug-In . SVG Version: 6.00 Build 0)  -->
<svg version="1.1" id="Layer_1" xmlns="http://www.w3.org/2000/svg" xmlns:xlink="http://www.w3.org/1999/xlink" x="0px" y="0px"
	 viewBox="0 0 503.467 503.467" style="enable-background:new 0 0 503.467 503.467;" xml:space="preserve">
<g transform="translate(5 1)">
	<path style="fill:#F2EDDA;" d="M460.067,122.733v341.333c0,18.773-15.36,34.133-34.133,34.133h-358.4
		c-18.773,0-34.133-15.36-34.133-34.133V37.4c0-18.773,15.36-34.133,34.133-34.133H340.6V88.6c0,18.773,15.36,34.133,34.133,34.133
		H460.067z"/>
	<path style="fill:#FFD0A1;" d="M460.067,122.733h-85.333c-18.773,0-34.133-15.36-34.133-34.133V3.267L460.067,122.733z"/>
	<path style="fill:#C49AE9;" d="M272.333,319c0-14.507-11.093-25.6-25.6-25.6c-14.507,0-25.6,11.093-25.6,25.6
		c0,14.507,11.093,25.6,25.6,25.6C261.24,344.6,272.333,333.507,272.333,319 M246.733,208.067
		c61.44,0,110.933,49.493,110.933,110.933s-49.493,110.933-110.933,110.933C185.293,429.933,135.8,380.44,135.8,319
		S185.293,208.067,246.733,208.067"/>
</g>
<path style="fill:#51565F;" d="M430.933,503.467h-358.4c-21.333,0-38.4-17.067-38.4-38.4V38.4C34.133,17.067,51.2,0,72.533,0H345.6
	c0.853,0,2.56,0.853,3.413,0.853l85.333,85.333c1.707,1.707,1.707,4.267,0,5.973c-1.707,1.707-4.267,1.707-5.973,0l-84.48-84.48
	H72.533c-16.213,0-29.867,13.653-29.867,29.867v426.667c0,16.213,13.653,29.867,29.867,29.867h358.4
	c16.213,0,29.867-13.653,29.867-29.867V127.147h-81.067c-21.333,0-38.4-17.067-38.4-38.4V46.08c0-2.56,1.707-4.267,4.267-4.267
	s4.267,1.707,4.267,4.267v42.667c0,16.213,13.653,29.867,29.867,29.867h85.333c2.56,0,4.267,1.707,4.267,4.267v341.333
	C469.333,486.4,452.267,503.467,430.933,503.467z M251.733,435.2c-63.147,0-115.2-52.053-115.2-115.2s52.053-115.2,115.2-115.2
	s115.2,52.053,115.2,115.2S314.88,435.2,251.733,435.2z M251.733,213.333c-58.88,0-106.667,47.787-106.667,106.667
	s47.787,106.667,106.667,106.667S358.4,378.88,358.4,320S310.613,213.333,251.733,213.333z M308.907,381.44
	c-0.853,0-2.56,0-3.413-0.853l-18.773-18.773c-0.853-0.853-0.853-1.707-0.853-3.413s0-2.56,0.853-3.413
	c1.707-1.707,4.267-1.707,5.973,0l18.773,18.773c0.853,0.853,0.853,1.707,0.853,3.413s0,2.56-0.853,3.413
	C310.613,381.44,309.76,381.44,308.907,381.44z M251.733,349.867c-16.213,0-29.867-13.653-29.867-29.867
	c0-16.213,13.653-29.867,29.867-29.867S281.6,303.787,281.6,320C281.6,336.213,267.947,349.867,251.733,349.867z M251.733,298.667
	c-11.947,0-21.333,9.387-21.333,21.333c0,11.947,9.387,21.333,21.333,21.333c11.947,0,21.333-9.387,21.333-21.333
	C273.067,308.053,263.68,298.667,251.733,298.667z M213.333,285.867c-0.853,0-2.56,0-3.413-0.853l-18.773-18.773
	c-0.853-0.853-0.853-1.707-0.853-3.413s0-2.56,0.853-3.413c1.707-1.707,4.267-1.707,5.973,0l18.773,18.773
	c0.853,0.853,0.853,1.707,0.853,3.413s0,2.56-0.853,3.413C215.04,285.867,214.187,285.867,213.333,285.867z"/>
<g>
</g>
<g>
</g>
<g>
</g>
<g>
</g>
<g>
</g>
<g>
</g>
<g>
</g>
<g>
</g>
<g>
</g>
<g>
</g>
<g>
</g>
<g>
</g>
<g>
</g>
<g>
</g>
<g>
</g>
</svg>
