<svg fill="#000000" viewBox="0 0 35 35" xmlns="http://www.w3.org/2000/svg"><path d="M17.5,26.234a6.807,6.807,0,1,1,6.808-6.807A6.815,6.815,0,0,1,17.5,26.234Zm0-11.114a4.307,4.307,0,1,0,4.308,4.307A4.313,4.313,0,0,0,17.5,15.12Z"/><path d="M32.27,4.86H29.386a1.25,1.25,0,1,1,0-2.5H32.27a1.25,1.25,0,0,1,0,2.5Z"/><path d="M30.56,32.64H4.45a4.2,4.2,0,0,1-4.2-4.19V12.74a4.2,4.2,0,0,1,4.2-4.19H8.938L10.9,5.565A3.5,3.5,0,0,1,13.836,3.98h7.336A3.5,3.5,0,0,1,24.11,5.566L26.065,8.55H30.56a4.194,4.194,0,0,1,4.19,4.19V28.45A4.2,4.2,0,0,1,30.56,32.64ZM4.45,11.05a1.7,1.7,0,0,0-1.7,1.69V28.45a1.7,1.7,0,0,0,1.7,1.69H30.56a1.692,1.692,0,0,0,1.69-1.69V12.74a1.692,1.692,0,0,0-1.69-1.69H25.39a1.251,1.251,0,0,1-1.046-.565L22.02,6.936a1.013,1.013,0,0,0-.848-.456H13.836a1.012,1.012,0,0,0-.848.457l-2.329,3.546a1.254,1.254,0,0,1-1.049.567Z"/></svg>
