<svg xmlns="http://www.w3.org/2000/svg" width="1em" height="1em" viewBox="0 0 16 16"><path fill="currentColor" d="M9.5 2.5A.5.5 0 0 0 9 2H7a.5.5 0 0 0 0 1h2a.5.5 0 0 0 .5-.5m1.5 0a.5.5 0 0 0 .5.5A1.5 1.5 0 0 1 13 4.5a.5.5 0 0 0 1 0A2.5 2.5 0 0 0 11.5 2a.5.5 0 0 0-.5.5M14 7a.5.5 0 0 0-1 0v2a.5.5 0 0 0 1 0zm0 4.5a.5.5 0 0 0-1 0a1.5 1.5 0 0 1-1.5 1.5a.5.5 0 0 0 0 1a2.5 2.5 0 0 0 2.5-2.5m-7.5 2A.5.5 0 0 1 7 13h2a.5.5 0 0 1 0 1H7a.5.5 0 0 1-.5-.5M5 2.5a.5.5 0 0 0-.5-.5A2.5 2.5 0 0 0 2 4.5a.5.5 0 0 0 1 0A1.5 1.5 0 0 1 4.5 3a.5.5 0 0 0 .5-.5M4.5 13a.5.5 0 0 1 0 1A2.5 2.5 0 0 1 2 11.5a.5.5 0 0 1 1 0A1.5 1.5 0 0 0 4.5 13M3 9a.5.5 0 0 1-1 0V7a.5.5 0 0 1 1 0z"/></svg>
