<svg xmlns="http://www.w3.org/2000/svg" width="1em" height="1em" viewBox="0 0 16 16"><g fill="currentColor"><path d="M3.83 1a1 1 0 0 1 1-1h2a1 1 0 0 1 1 1v.245a3 3 0 0 0-1.485 1.392A3 3 0 0 0 3.59 4.134l-1 1.732A3 3 0 0 0 2.672 9a3 3 0 0 0-.47 1.346a1 1 0 0 1-1.068-.48l-1-1.732A1 1 0 0 1 .5 6.768l.202-.117a.26.26 0 0 0 .126-.245a5 5 0 0 1 0-.812a.26.26 0 0 0-.126-.245L.5 5.232a1 1 0 0 1-.366-1.366l1-1.732A1 1 0 0 1 2.5 1.768l.21.12c.085.05.192.044.274-.012q.33-.227.697-.4a.26.26 0 0 0 .15-.232z"/><path d="M9.019 3a1 1 0 0 0-1 1v.244c0 .1-.06.19-.15.232a5 5 0 0 0-.697.4a.26.26 0 0 1-.274.013l-.21-.121a1 1 0 0 0-1.366.366l-1 1.732a1 1 0 0 0 .366 1.366l.202.117c.086.05.134.145.126.245a5 5 0 0 0 0 .812c.008.1-.04.196-.126.245l-.202.117a1 1 0 0 0-.366 1.366l1 1.732a1 1 0 0 0 1.366.366l.21-.12a.26.26 0 0 1 .274.012q.33.227.697.4a.26.26 0 0 1 .15.232V14a1 1 0 0 0 1 1h2a1 1 0 0 0 1-1v-.261c0-.1.058-.189.147-.231q.355-.171.678-.395a.26.26 0 0 1 .275-.013l.23.132a1 1 0 0 0 1.366-.366l1-1.732a1 1 0 0 0-.366-1.366l-.238-.137a.26.26 0 0 1-.126-.244a5 5 0 0 0 0-.774a.26.26 0 0 1 .126-.244l.238-.137a1 1 0 0 0 .366-1.366l-1-1.732a1 1 0 0 0-1.366-.366l-.23.132a.26.26 0 0 1-.275-.013a5 5 0 0 0-.678-.395a.26.26 0 0 1-.148-.23V4a1 1 0 0 0-1-1h-2ZM12 9a2 2 0 1 1-4 0a2 2 0 0 1 4 0"/></g></svg>
