<svg xmlns="http://www.w3.org/2000/svg" width="1em" height="1em" viewBox="0 0 16 16"><path fill="currentColor" d="M11.5 5.502a1.002 1.002 0 1 1-2.004 0a1.002 1.002 0 0 1 2.004 0M2 4.5A2.5 2.5 0 0 1 4.5 2h7A2.5 2.5 0 0 1 14 4.5v7a2.5 2.5 0 0 1-2.5 2.5h-7A2.5 2.5 0 0 1 2 11.5zM4.5 3A1.5 1.5 0 0 0 3 4.5v7c0 .232.052.45.146.647l3.652-3.652a1.7 1.7 0 0 1 2.404 0l3.652 3.652A1.5 1.5 0 0 0 13 11.5v-7A1.5 1.5 0 0 0 11.5 3zm7.647 9.854L8.495 9.202a.7.7 0 0 0-.99 0l-3.652 3.652c.196.094.415.146.647.146h7c.232 0 .45-.053.647-.146"/></svg>