<?xml version="1.0" encoding="iso-8859-1"?>
<svg version="1.1" id="Layer_1" xmlns="http://www.w3.org/2000/svg" xmlns:xlink="http://www.w3.org/1999/xlink" x="0px" y="0px"
	 viewBox="0 0 329.028 329.028" style="enable-background:new 0 0 329.028 329.028; transform: scaleX(-1);" xml:space="preserve">
<path id="XMLID_169_" d="M241.853,72.46L252.7,17.926c1.184-5.95-1.334-12.028-6.378-15.398c-5.045-3.37-11.623-3.37-16.668,0
	L156.181,51.62c-0.005,0.004-0.01,0.007-0.015,0.011c-0.339,0.227-0.663,0.476-0.982,0.729c-0.065,0.052-0.137,0.098-0.201,0.15
	c-0.375,0.309-0.734,0.635-1.077,0.978c-0.105,0.105-0.198,0.222-0.3,0.33c-0.231,0.246-0.465,0.49-0.68,0.751
	c-0.086,0.104-0.159,0.217-0.242,0.324c-0.217,0.279-0.435,0.559-0.632,0.853c-0.05,0.074-0.091,0.153-0.139,0.228
	c-0.218,0.337-0.429,0.677-0.618,1.031c-0.021,0.04-0.039,0.083-0.06,0.123c-0.207,0.393-0.4,0.794-0.571,1.206
	c-0.009,0.02-0.015,0.042-0.023,0.062c-0.177,0.431-0.337,0.871-0.475,1.321c-0.012,0.041-0.02,0.084-0.031,0.125
	c-0.127,0.428-0.239,0.86-0.327,1.303c-0.001,0.007-0.004,0.013-0.005,0.02c-0.027,0.137-0.038,0.276-0.062,0.414
	c-0.058,0.339-0.117,0.678-0.151,1.025c-0.044,0.44-0.062,0.881-0.066,1.321c-0.001,0.056-0.009,0.11-0.009,0.167
	c0,0.001,0,0.003,0,0.004c0,0.5,0.026,0.999,0.075,1.495c0.031,0.307,0.087,0.606,0.135,0.907c0.029,0.181,0.047,0.362,0.083,0.542
	c0.077,0.387,0.18,0.765,0.286,1.142c0.025,0.091,0.043,0.184,0.07,0.274c0.121,0.398,0.266,0.786,0.418,1.17
	c0.027,0.069,0.048,0.141,0.076,0.21c0.162,0.389,0.345,0.766,0.537,1.137c0.033,0.064,0.06,0.131,0.094,0.194
	c0.206,0.384,0.432,0.755,0.67,1.118c0.029,0.046,0.054,0.095,0.084,0.141l0.013,0.02c0.014,0.02,0.026,0.04,0.04,0.059
	l49.041,73.395c2.817,4.217,7.525,6.667,12.47,6.667c0.971,0,1.952-0.094,2.929-0.288c5.95-1.184,10.602-5.835,11.785-11.786
	l7.052-35.455c23.901,20.188,39.109,50.36,39.109,84.022c0,60.636-49.331,109.968-109.967,109.968
	c-60.637,0-109.969-49.332-109.969-109.968c0-29.373,11.44-56.988,32.21-77.759c5.858-5.858,5.858-15.355,0-21.213
	c-5.857-5.858-15.356-5.858-21.213,0c-26.437,26.437-40.997,61.586-40.997,98.972c0,77.178,62.79,139.968,139.969,139.968
	c77.178,0,139.967-62.79,139.967-139.968C304.482,140.453,279.572,97.561,241.853,72.46z"/>
</svg>
