<?xml version="1.0" ?>
<svg viewBox="-0.36 -0.36 12.72 12.72" enable-background="new 0 0 12 12" version="1.1" xml:space="preserve" xmlns="http://www.w3.org/2000/svg" xmlns:xlink="http://www.w3.org/1999/xlink" fill="#eeeeee" stroke="#eeeeee" stroke-width="0.12000000000000002"><g id="SVGRepo_bgCarrier" stroke-width="0"></g><g id="SVGRepo_tracerCarrier" stroke-linecap="round" stroke-linejoin="round"></g><g id="SVGRepo_iconCarrier"><path d="M9.5,7C8.7038574,7,8.0015869,7.3810425,7.543457,7.9626465L4.9055176,6.6434326 C4.9609375,6.4368286,5,6.223877,5,6c0-0.223938-0.0391235-0.4369507-0.0945435-0.6436157L7.543457,4.0373535 C8.0015869,4.6190186,8.7038574,5,9.5,5C10.878418,5,12,3.8789063,12,2.5S10.878418,0,9.5,0S7,1.1210938,7,2.5 c0,0.223938,0.0391235,0.4369507,0.0945435,0.6436157L4.456543,4.4626465C3.9984131,3.8809814,3.2961426,3.5,2.5,3.5 C1.121582,3.5,0,4.6210938,0,6s1.121582,2.5,2.5,2.5c0.7962036,0,1.4985352-0.3809814,1.956665-0.9627686l2.6378784,1.3190918 C7.0390625,9.0629883,7,9.276062,7,9.5C7,10.8789063,8.121582,12,9.5,12S12,10.8789063,12,9.5S10.878418,7,9.5,7z M9.5,1 C10.3271484,1,11,1.6728516,11,2.5S10.3271484,4,9.5,4S8,3.3271484,8,2.5S8.6728516,1,9.5,1z M2.5,7.5 C1.6728516,7.5,1,6.8271484,1,6s0.6728516-1.5,1.5-1.5S4,5.1728516,4,6S3.3271484,7.5,2.5,7.5z M9.5,11 C8.6728516,11,8,10.3271484,8,9.5S8.6728516,8,9.5,8S11,8.6728516,11,9.5S10.3271484,11,9.5,11z" fill="#eeeeee"></path></g></svg>
