<svg xmlns="http://www.w3.org/2000/svg" width="447" height="301" viewBox="0 0 492 332"><style><![CDATA[.B{stroke:#4f4f4f}.C{flood-color:#000}.D{flood-opacity:.5}.E{stroke-width:11}]]></style><defs><filter id="A" x="-1.8182%" y="-2.7229%" width="104.0559%" height="106.0741%"><feGaussianBlur in="SourceAlpha" stdDeviation="5"/><feOffset dx="3" dy="3" result="B"/><feFlood class="C D"/><feComposite in2="B" operator="in" result="C"/><feMerge><feMergeNode in="C"/><feMergeNode in="SourceGraphic"/></feMerge></filter><filter id="B" x="-8.412%" y="-8.7236%" width="118.7721%" height="119.4674%"><feGaussianBlur in="SourceAlpha" stdDeviation="5"/><feOffset dx="3" dy="3" result="B"/><feFlood class="C D"/><feComposite in2="B" operator="in" result="C"/><feMerge><feMergeNode in="C"/><feMergeNode in="SourceGraphic"/></feMerge></filter><filter id="C" x="-121.2175%" y="-169.7042%" width="364.4745%" height="470.2637%"><feGaussianBlur in="SourceAlpha" stdDeviation="5"/><feOffset dx="3" dy="3" result="B"/><feFlood class="C D"/><feComposite in2="B" operator="in" result="C"/><feMerge><feMergeNode in="C"/><feMergeNode in="SourceGraphic"/></feMerge></filter><filter id="D" x="-26.4463%" y="-83.1169%" width="157.8512%" height="281.8182%"><feGaussianBlur in="SourceAlpha" stdDeviation="5"/><feOffset dx="3" dy="3" result="B"/><feFlood class="C D"/><feComposite in2="B" operator="in" result="C"/><feMerge><feMergeNode in="C"/><feMergeNode in="SourceGraphic"/></feMerge></filter></defs><g filter="url(#A)" fill="#c1c1c1" transform="translate(24.8872 19.3872)"><path d="M10.3093 176.4491C4.1271 169.6895 0 156.1906 0 144.3637c0-11.8192 3.0933-22.789 10.8241-28.6977h-.5143L131.9564 0v78.5208c-13.402 12.6623-31.4424 27.019-76.8017 66.701l.5143.834c24.226 17.7366 52.0608 44.7485 76.2869 68.3875v79.3637z"/><g transform="translate(308.0441 .001)"><path d="M121.6469 117.3511c6.1774 6.76 10.309 20.2657 10.309 32.0859s-3.0934 22.7882-10.8284 28.6976h.5196L0 293.801v-78.5212c13.4027-12.6552 31.4425-27.0115 76.8021-66.694l-.5143-.834C52.0659 130.0152 24.2272 103.0031.0005 79.3647V0z"/></g></g><g filter="url(#B)" transform="translate(170 93)" class="B"><rect fill="none" height="148.5" rx="25" width="154" class="E"/><g transform="translate(49.5 49.5)" class="E"><circle cx="2.75" cy="2.75" fill="#4f4f4f" r="2.75"/></g><g transform="translate(104.5 49.5)" class="E"><circle cx="2.75" cy="2.75" fill="#4f4f4f" r="2.75"/></g><g transform="translate(99 19.25)"><path d="M16.5 2.75L0 0" stroke-width="8.8"/></g></g><path d="M13.6119 9.7228L0 0" stroke-width="8.8" filter="url(#C)" transform="matrix(.7071 -.70710678 .70710678 .7071 208.49997305 114.99996914)" class="B"/><path fill="none" d="M0 0q33 38.5 60.5 0" stroke-width="7.7" filter="url(#D)" transform="translate(219.5 186.5)" class="B"/></svg>