<svg xmlns="http://www.w3.org/2000/svg" width="447" height="301" viewBox="0 0 492 332"><style><![CDATA[.B{flood-color:#000}.C{flood-opacity:.5}.D{stroke:#4f4f4f}.E{stroke-width:7.7}]]></style><defs><filter id="A" x="-1.8182%" y="-2.7229%" width="104.0559%" height="106.0741%"><feGaussianBlur in="SourceAlpha" stdDeviation="5"/><feOffset dx="3" dy="3" result="B"/><feFlood class="B C"/><feComposite in2="B" operator="in" result="C"/><feMerge><feMergeNode in="C"/><feMergeNode in="SourceGraphic"/></feMerge></filter><filter id="B" x="-8.412%" y="-8.7236%" width="118.7721%" height="119.4674%"><feGaussianBlur in="SourceAlpha" stdDeviation="5"/><feOffset dx="3" dy="3" result="B"/><feFlood class="B C"/><feComposite in2="B" operator="in" result="C"/><feMerge><feMergeNode in="C"/><feMergeNode in="SourceGraphic"/></feMerge></filter><filter id="C" x="-72.7273%" y="-363.6364%" width="259.0909%" height="895.4545%"><feGaussianBlur in="SourceAlpha" stdDeviation="5"/><feOffset dx="3" dy="3" result="B"/><feFlood class="B C"/><feComposite in2="B" operator="in" result="C"/><feMerge><feMergeNode in="C"/><feMergeNode in="SourceGraphic"/></feMerge></filter><filter x="-72.7273%" y="-290.9091%" id="D" width="259.0909%" height="736.3636%"><feGaussianBlur in="SourceAlpha" stdDeviation="5"/><feOffset dx="3" dy="3" result="B"/><feFlood class="B C"/><feComposite in2="B" operator="in" result="C"/><feMerge><feMergeNode in="C"/><feMergeNode in="SourceGraphic"/></feMerge></filter><filter id="E" x="-26.4463%" y="-116.3636%" width="157.8512%" height="354.5455%"><feGaussianBlur in="SourceAlpha" stdDeviation="5"/><feOffset dx="3" dy="3" result="B"/><feFlood class="B C"/><feComposite in2="B" operator="in" result="C"/><feMerge><feMergeNode in="C"/><feMergeNode in="SourceGraphic"/></feMerge></filter></defs><g filter="url(#A)" fill="#c1c1c1" transform="translate(24.8872 19.3872)"><path d="M10.3093 176.4491C4.1271 169.6895 0 156.1906 0 144.3637c0-11.8192 3.0933-22.789 10.8241-28.6977h-.5143L131.9564 0v78.5208c-13.402 12.6623-31.4424 27.019-76.8017 66.701l.5143.834c24.226 17.7366 52.0608 44.7485 76.2869 68.3875v79.3637z"/><g transform="translate(308.0441 .001)"><path d="M121.6469 117.3511c6.1774 6.76 10.309 20.2657 10.309 32.0859s-3.0934 22.7882-10.8284 28.6976h.5196L0 293.801v-78.5212c13.4027-12.6552 31.4425-27.0115 76.8021-66.694l-.5143-.834C52.0659 130.0152 24.2272 103.0031.0005 79.3647V0z"/></g></g><g filter="url(#B)" transform="translate(170 93)" class="D"><rect fill="none" height="148.5" rx="25" stroke-width="11" width="154"/></g><path d="M0 0q12 11 22 0" fill="none" filter="url(#C)" transform="matrix(-1 0 0 -1 230.5 142.5)" class="D E"/><path d="M0 0q12 11 22 0" filter="url(#D)" fill="none" transform="matrix(-1 0 0 -1 285.5 142.5)" class="D E"/><path fill="none" d="M0 0q33 27.5 60.5 0" filter="url(#E)" transform="translate(219.5 186.5)" class="D E"/></svg>