<svg xmlns="http://www.w3.org/2000/svg" width="1em" height="1em" viewBox="0 0 24 24"><path fill="currentColor" d="M8.7 15.3q.275.275.7.275t.7-.275l1.9-1.9l1.925 1.925q.275.275.675.275t.7-.3q.275-.275.275-.7t-.275-.7L13.4 12l1.925-1.925Q15.6 9.8 15.6 9.4t-.3-.7q-.275-.275-.7-.275t-.7.275L12 10.6l-1.925-1.925Q9.8 8.4 9.4 8.4t-.7.3q-.275.275-.275.7t.275.7l1.9 1.9l-1.925 1.925Q8.4 14.2 8.4 14.6t.3.7ZM4 20q-.825 0-1.413-.588T2 18V6q0-.825.588-1.413T4 4h16q.825 0 1.413.588T22 6v12q0 .825-.588 1.413T20 20H4Zm0-2V6v12Zm0 0h16V6H4v12Z"/></svg>