<svg xmlns="http://www.w3.org/2000/svg" id="draw.id" overflow="visible" v:layers="{&quot;default&quot;:{&quot;name&quot;:&quot;Default&quot;,&quot;print&quot;:1,&quot;display&quot;:1,&quot;publish&quot;:1}}" v:ver="5" x="500.5" y="500.5" v:stencils="{&quot;0&quot;:{&quot;id&quot;:&quot;stencil_25&quot;,&quot;expand&quot;:0,&quot;show_name&quot;:1},&quot;1&quot;:{&quot;id&quot;:&quot;stencil_65&quot;,&quot;expand&quot;:1,&quot;show_name&quot;:1}}" xmlns:v="http://vecta.io"><style xmlns="http://www.w3.org/1999/xhtml"><![CDATA[#draw\.id{stroke:#000;stroke-linecap:round;stroke-linejoin:round;fill:#fff;fill-rule:evenodd;font-family:Roboto;font-size:14px;text-anchor:middle}#draw\.id text{paint-order:stroke;white-space:pre}#draw\.id .Text\.cls{stroke:none}]]></style><defs><style type="text/css">@import url("/fonts/roboto.css"); @import url("/fonts/roboto-condensed.css"); @import url("/fonts/cousine.css"); @import url("/fonts/anonymous-pro.css"); @import url("/fonts/lato.css"); @import url("/fonts/open-sans.css");</style><linearGradient id="L001001000D7D7D7100100626262100.grad" x1="0%" y1="0%" x2="100%" y2="100%"><stop offset="0%" stop-color="#D7D7D7" stop-opacity="1"/><stop offset="100%" stop-color="#626262" stop-opacity="1"/></linearGradient></defs><title xmlns="http://www.w3.org/1999/xhtml">LiveCodes text logo</title><desc xmlns="http://www.w3.org/1999/xhtml"></desc><svg height="228" id="khpwqc5o5" overflow="visible" v:setup="{&quot;paper&quot;:&quot;CUSTOM&quot;,&quot;unit&quot;:&quot;px&quot;,&quot;scale&quot;:{&quot;from&quot;:&quot;1&quot;,&quot;to&quot;:&quot;1&quot;},&quot;width&quot;:&quot;720 px&quot;,&quot;height&quot;:&quot;190 px&quot;,&quot;orient&quot;:0,&quot;margin&quot;:{&quot;top&quot;:&quot;0&quot;,&quot;bottom&quot;:&quot;0&quot;,&quot;left&quot;:&quot;0&quot;,&quot;right&quot;:&quot;0&quot;}}" viewBox="0 0 720 190" width="864"><g id="lcnuriu1pn" transform="translate(275 0)"><rect fill="none" height="190" stroke="none" width="450" x="0" y="0"/><defs><filter id="lcnuriu1pn.txt.flt" x="-2.888888888888889%" y="-6.842105263157895%" width="106.44444444444444%" height="115.26315789473684%"><feGaussianBlur class="Shadow.eff" in="SourceAlpha" stdDeviation="5" result="shadow"/><feOffset class="Shadow.eff" in="shadow" dx="3" dy="3" result="shadow_offset"/><feFlood class="Shadow.eff" flood-color="#000" flood-opacity="0.5"/><feComposite class="Shadow.eff" in2="shadow_offset" operator="in" result="shadow_eff"/><feMerge class="Shadow.eff"><feMergeNode in="shadow_eff"/><feMergeNode in="SourceGraphic"/></feMerge></filter></defs><g transform="translate(-5.172413793103451 0)" class="Text.cls" filter="url(#lcnuriu1pn.txt.flt)"><rect x="0" y="0" width="450" height="190" fill="none" stroke="none"/><text fill="#484848" fill-opacity="1" class="" font-size="96px" font-family="Lato" font-weight="bold"><tspan x="225" y="126.68">LiveCodes</tspan></text></g></g><g id="lcnv68ge10g" class="Group.cls" fill="#c1c1c1" transform="translate(7.5 12.2023)" v:abox="{&quot;x&quot;:7.5,&quot;y&quot;:12.2023,&quot;width&quot;:247.5,&quot;height&quot;:165.2664466271033}"><g class="Prim.cls" filter="url(#lcnv68ge10g.flt)"><g id="lcnv68gr10h" transform="translate(0 0)" v:unit="{&quot;strokeWidth&quot;:&quot;px&quot;}"><path d="M 5.7987 99.2529 C 2.3215 95.45 0 87.8569 0 81.2041 C 0 74.5559 1.7397 68.3861 6.0885 65.0617 L 5.7987 65.0617 C 26.3844 45.1168 55.0892 18.5219 74.2265 0 L 74.2265 44.167 C 66.6872 51.2899 56.5397 59.3667 31.0241 81.6874 L 31.3139 82.1569 C 44.9405 92.1328 60.5987 107.3277 74.2253 120.6241 L 74.2253 165.2671 Z" fill="#c1c1c1" fill-opacity="1" fill-rule="nonzero" stroke="none" stroke-linecap="butt" stroke-linejoin="miter" stroke-width="9.3827"/></g><g id="lcnv68gt10i" transform="translate(173.2748 0.0007)" v:unit="{&quot;strokeWidth&quot;:&quot;px&quot;}"><path d="M 68.4263 66.0105 C 71.9012 69.8123 74.2254 77.4098 74.2254 84.0584 C 74.2254 90.7063 72.4853 96.8771 68.1341 100.2004 L 68.4263 100.2004 C 47.8422 120.1461 19.1342 146.7403 0 165.2632 L 0 121.0943 C 7.5392 113.9764 17.6864 105.9016 43.2011 83.5792 L 42.9124 83.1103 C 29.2865 73.1338 13.6283 57.9387 0.0007 44.6425 L 0.0007 0 Z" fill="#c1c1c1" fill-opacity="1" fill-rule="nonzero" stroke="none" stroke-linecap="butt" stroke-linejoin="miter" stroke-width="9.3827"/></g></g><defs><filter id="lcnv68ge10g.flt" x="-5.977011494252873%" y="-8.951062814131939%" width="113.33333333333333%" height="119.96775550844818%"><feGaussianBlur class="Shadow.eff" in="SourceAlpha" stdDeviation="5" result="shadow"/><feOffset class="Shadow.eff" in="shadow" dx="3" dy="3" result="shadow_offset"/><feFlood class="Shadow.eff" flood-color="#000" flood-opacity="0.5"/><feComposite class="Shadow.eff" in2="shadow_offset" operator="in" result="shadow_eff"/><feMerge class="Shadow.eff"><feMergeNode in="shadow_eff"/><feMergeNode in="SourceGraphic"/></feMerge></filter></defs></g><g id="lcnv68h710j" class="Group.cls" transform="translate(80.1922 31.2407)" v:abox="{&quot;x&quot;:80.1922,&quot;y&quot;:31.2407,&quot;width&quot;:102.1153846153846,&quot;height&quot;:124.61538461538458}" v:symbol="TSpZvfs-v5gEQ8dCVNdtyR"><g class="Prim.cls" filter="url(#lcnv68h710j.flt)"><g id="lcnv68h810k" transform="translate(50.964 32.0521)" v:unit="{&quot;strokeWidth&quot;:&quot;px&quot;}"><path d="M 0 90.6666 L 49.5578 60.3929 L 49.5578 0 L 0 30.188 L 0 90.6666 Z" fill="#ffffff" stroke="none" stroke-width="1"/></g><g id="lcnv68h810l" transform="translate(1.4988 32.1025)" v:unit="{&quot;strokeWidth&quot;:&quot;px&quot;}"><path d="M 0 60.3268 L 49.4967 90.5481 L 49.4967 30.1545 L 0 0 L 0 60.3268 Z" fill="#ffffff" stroke="none" stroke-width="1"/></g><g id="lcnv68h810m" transform="translate(1.8113 2.082)" v:unit="{&quot;strokeWidth&quot;:&quot;px&quot;}"><path d="M 98.3689 29.9698 L 49.1846 0 L 0 29.9698 L 49.1846 59.9911 L 98.3689 29.9698 Z" fill="#ffffff" stroke="none" stroke-width="1"/></g><g id="lcnv68h810n" transform="translate(50.9953 32.0521)" v:unit="{&quot;strokeWidth&quot;:&quot;px&quot;}"><path d="M 0 28.2413 L 46.3262 0.0331 L 46.2801 0 L 0 28.2413 L 0 28.2413 Z" fill="#ffffff" stroke="none" stroke-width="1"/></g><g id="lcnv68h810o" transform="translate(4.6686 32.0521)" v:unit="{&quot;strokeWidth&quot;:&quot;px&quot;}"><path d="M 0.047 0 L 0 0.0331 L 46.3262 28.2413 L 46.3262 28.2413 L 0.047 0 Z" fill="#ffffff" stroke="none" stroke-width="1"/></g><g id="lcnv68h910p" transform="translate(50.9953 60.2927)" v:unit="{&quot;strokeWidth&quot;:&quot;px&quot;}"><path d="M 0 0 Z" fill="#ffffff" stroke="none" stroke-width="1"/></g><g id="lcnv68h910q" transform="translate(0 0)" v:unit="{&quot;strokeWidth&quot;:&quot;px&quot;}"><path d="M 100.429 30.1217 L 50.9958 0 L 1.5615 30.1217 L 0 31.1124 L 0 93.437 L 49.4967 123.6584 L 51.0574 124.6148 L 52.6197 123.6584 L 102.1158 93.437 L 102.1158 31.0942 Z M 98.8679 91.4884 L 52.5568 119.7974 L 52.5568 63.214 L 98.9298 34.9567 Z M 49.4332 119.7974 L 3.0607 91.4724 L 3.0607 34.9567 L 49.4332 63.214 Z M 4.7147 32.0855 L 50.9958 3.8627 L 97.2749 32.0855 L 97.2749 32.0855 L 50.9958 60.2934 L 50.9958 60.2934 L 4.6694 32.0855 Z" fill="#444444" stroke="none" stroke-width="1"/></g><g id="lcnv68h910r" transform="translate(51.1983 46.2062)" v:unit="{&quot;strokeWidth&quot;:&quot;px&quot;}"><path d="M 0 48.6571 L 26.6225 32.421 L 26.6225 0 L 0 16.2187 L 0 48.6571 Z" fill="url(#L001001000D7D7D7100100626262100.grad)" fill-opacity="1" stroke="none" stroke-width="1"/></g><g id="lcnv68h910s" transform="translate(24.1704 46.2062)" v:unit="{&quot;strokeWidth&quot;:&quot;px&quot;}"><path d="M 0 32.421 L 26.6225 48.6571 L 26.6225 16.2187 L 0 0 L 0 32.421 Z" fill="url(#L001001000D7D7D7100100626262100.grad)" fill-opacity="1" stroke="none" stroke-width="1"/></g><g id="lcnv68h910t" transform="translate(24.4514 29.6006)" v:unit="{&quot;strokeWidth&quot;:&quot;px&quot;}"><path d="M 53.0872 16.1692 L 26.5444 0 L 0 16.1692 L 26.5444 32.3881 L 53.0872 16.1692 Z" fill="url(#L001001000D7D7D7100100626262100.grad)" fill-opacity="1" stroke="none" stroke-width="1"/></g><g id="lcnv68h910u" transform="translate(50.9953 45.7696)" v:unit="{&quot;strokeWidth&quot;:&quot;px&quot;}"><path d="M 0 14.5742 L 23.8733 0.0331 L 23.8423 0 L 0 14.5564 L 0 14.5742 Z" fill="#96bf3d" stroke="none" stroke-width="1"/></g><g id="lcnv68h910v" transform="translate(27.1215 45.7696)" v:unit="{&quot;strokeWidth&quot;:&quot;px&quot;}"><path d="M 0.032 0 L 0 0.0331 L 23.8733 14.5742 L 23.8733 14.5564 L 0.032 0 Z" fill="#96bf3d" stroke="none" stroke-width="1"/></g><g id="lcnv68h910w" transform="translate(50.9953 60.3266)" v:unit="{&quot;strokeWidth&quot;:&quot;px&quot;}"><path d="M 0 0 Z" fill="#96bf3d" stroke="none" stroke-width="1"/></g><g id="lcnv68ha10x" transform="translate(22.4216 27.4012)" v:unit="{&quot;strokeWidth&quot;:&quot;px&quot;}"><path d="M 55.586 16.4371 L 28.5739 0 L 1.5615 16.4371 L 0 17.4116 L 0 52.3519 L 27.0122 68.8561 L 28.5739 69.8123 L 30.1345 68.8561 L 57.1789 52.3519 L 57.1789 17.4116 Z M 54.0237 50.3874 L 30.1345 64.995 L 30.1345 35.8463 L 54.0563 21.2726 Z M 27.0122 64.995 L 3.0912 50.3874 L 3.0912 21.2726 L 27.0122 35.8463 Z M 4.7307 18.3678 L 28.5739 3.8628 L 52.4165 18.3855 L 52.4165 18.3855 L 28.5739 32.9249 L 28.5739 32.9249 L 4.7 18.4015 Z" fill="#ffffff" stroke="none" stroke-width="1"/></g></g><defs><filter id="lcnv68h710j.flt" x="-14.486654977595947%" y="-11.871008939974457%" width="132.31638418079095%" height="126.48148148148147%"><feGaussianBlur class="Shadow.eff" in="SourceAlpha" stdDeviation="5" result="shadow"/><feOffset class="Shadow.eff" in="shadow" dx="3" dy="3" result="shadow_offset"/><feFlood class="Shadow.eff" flood-color="#000" flood-opacity="0.5"/><feComposite class="Shadow.eff" in2="shadow_offset" operator="in" result="shadow_eff"/><feMerge class="Shadow.eff"><feMergeNode in="shadow_eff"/><feMergeNode in="SourceGraphic"/></feMerge></filter></defs></g></svg></svg>