<svg xmlns="http://www.w3.org/2000/svg" id="draw.id" overflow="visible" v:layers="{&quot;default&quot;:{&quot;name&quot;:&quot;Default&quot;,&quot;print&quot;:1,&quot;display&quot;:1,&quot;publish&quot;:1}}" v:ver="3" x="500.5" y="500.5" v:stencils="{&quot;0&quot;:{&quot;id&quot;:&quot;stencil_25&quot;,&quot;expand&quot;:0,&quot;show_name&quot;:1},&quot;1&quot;:{&quot;id&quot;:&quot;stencil_65&quot;,&quot;expand&quot;:1,&quot;show_name&quot;:1}}" xmlns:v="http://vecta.io"><style xmlns="http://www.w3.org/1999/xhtml"><![CDATA[#draw\.id{stroke:#000;stroke-linecap:round;stroke-linejoin:round;fill:#fff;fill-rule:evenodd;font-family:Roboto;font-size:14px;text-anchor:middle}#draw\.id text{stroke:none;white-space:pre}]]></style><defs><style type="text/css">@import url('https://fonts.googleapis.com/css?family=Roboto+Condensed:400,400i,700,700i');@import url('https://fonts.googleapis.com/css?family=Roboto:400,400i,700,700i');@import url('https://fonts.googleapis.com/css?family=Cousine:400,400i,700,700i');@import url('https://fonts.googleapis.com/css?family=Anonymous+Pro:400,400i,700,700i');@import url('https://fonts.googleapis.com/css?family=Lato:400,400i,700,700i');@import url('https://fonts.googleapis.com/css?family=Open+Sans:400,400i,700,700i');</style><linearGradient id="L001001000D7D7D7100100626262100.grad" x1="0%" y1="0%" x2="100%" y2="100%"><stop offset="0%" stop-color="#D7D7D7" stop-opacity="1"/><stop offset="100%" stop-color="#626262" stop-opacity="1"/></linearGradient></defs><title xmlns="http://www.w3.org/1999/xhtml">livecodes logo (icon)</title><desc xmlns="http://www.w3.org/1999/xhtml"></desc><svg height="294.8" id="khpwqc5o5" overflow="visible" v:setup="{&quot;paper&quot;:&quot;CUSTOM&quot;,&quot;unit&quot;:&quot;px&quot;,&quot;scale&quot;:{&quot;from&quot;:&quot;1&quot;,&quot;to&quot;:&quot;1&quot;},&quot;width&quot;:&quot;737 px&quot;,&quot;height&quot;:&quot;737 px&quot;,&quot;orient&quot;:0,&quot;margin&quot;:{&quot;top&quot;:&quot;0&quot;,&quot;bottom&quot;:&quot;0&quot;,&quot;left&quot;:&quot;0&quot;,&quot;right&quot;:&quot;0&quot;}}" viewBox="0 0 737 737" width="294.8"><g id="kj676s9eoy" transform="translate(0 40)" v:unit="{&quot;rounded&quot;:&quot;px&quot;}"><rect fill="#fff" height="660" rx="25" stroke="#000" width="735" x="0" y="0"/></g><g id="kj62pg4hh4" class="Group.cls" fill="#c1c1c1" transform="translate(10 125)" v:abox="{&quot;x&quot;:10,&quot;y&quot;:125,&quot;width&quot;:715,&quot;height&quot;:477.4364013671875}"><g class="Prim.cls" filter="url(#kj62pg4hh4.flt)"><g id="kj62pg3zgu" transform="translate(0 0)" v:unit="{&quot;strokeWidth&quot;:&quot;px&quot;}"><path d="M 16.7525 286.7298 C 6.7066 275.7455 0 253.8097 0 234.5909 C 0 215.3848 5.0266 197.5589 17.5891 187.9573 L 16.7534 187.9573 C 76.2201 130.3365 159.1457 53.509 214.4292 0 L 214.4292 127.5964 C 192.6508 148.1726 163.3353 171.5021 89.6264 235.9855 L 90.4621 237.3407 C 129.8294 266.1627 175.0609 310.057 214.4283 348.4704 L 214.4283 477.4364 Z" fill="#c1c1c1" fill-opacity="1" fill-rule="nonzero" stroke="none" stroke-linecap="butt" stroke-linejoin="miter" stroke-width="9.382716039780863"/></g><g id="kj62pg40gv" transform="translate(500.5716 0.0017)" v:unit="{&quot;strokeWidth&quot;:&quot;px&quot;}"><path d="M 197.6761 190.6956 C 207.7146 201.6806 214.4284 223.6273 214.4284 242.8352 C 214.4284 262.0413 209.4016 279.866 196.8322 289.4688 L 197.6765 289.4688 C 138.2099 347.0891 55.2766 423.917 0 477.4266 L 0 349.8297 C 21.7793 329.2649 51.094 305.936 124.8034 241.452 L 123.9677 240.0967 C 84.607 211.2747 39.3692 167.3799 0.0009 128.9676 L 0.0009 0 Z" fill="#c1c1c1" fill-opacity="1" fill-rule="nonzero" stroke="none" stroke-linecap="butt" stroke-linejoin="miter" stroke-width="9.382716039780863"/></g></g><defs><filter id="kj62pg4hh4.flt" x="-1.8181818181818181%" y="-2.7228757511520243%" width="104.05594405594405%" height="106.0741074448776%"><feGaussianBlur class="Shadow.eff" in="SourceAlpha" stdDeviation="5" result="shadow"/><feOffset class="Shadow.eff" in="shadow" dx="3" dy="3" result="shadow_offset"/><feFlood class="Shadow.eff" flood-color="#000" flood-opacity="0.5"/><feComposite class="Shadow.eff" in2="shadow_offset" operator="in" result="shadow_eff"/><feMerge class="Shadow.eff"><feMergeNode in="shadow_eff"/><feMergeNode in="SourceGraphic"/></feMerge></filter></defs></g><g id="kj653n6phw" class="Group.cls" transform="translate(220 180)" v:abox="{&quot;x&quot;:220,&quot;y&quot;:180,&quot;width&quot;:295,&quot;height&quot;:360}" v:symbol="TSpZvfs-v5gEQ8dCVNdtyR"><g class="Prim.cls" filter="url(#kj653n6phw.flt)"><g id="kj653n6qhx" transform="translate(147.229 92.5951)" v:unit="{&quot;strokeWidth&quot;:&quot;px&quot;}"><path d="M 0 261.9238 L 143.1698 174.4704 L 143.1698 0 L 0 87.2109 L 0 261.9238 Z" fill="#ffffff" stroke="none" stroke-width="1"/></g><g id="kj653n6qhy" transform="translate(4.3302 92.7405)" v:unit="{&quot;strokeWidth&quot;:&quot;px&quot;}"><path d="M 0 174.2764 L 142.9894 261.5845 L 142.9894 87.1142 L 0 0 L 0 174.2764 Z" fill="#ffffff" stroke="none" stroke-width="1"/></g><g id="kj653n6rhz" transform="translate(5.2325 6.0147)" v:unit="{&quot;strokeWidth&quot;:&quot;px&quot;}"><path d="M 284.1743 86.5805 L 142.0872 0 L 0 86.5805 L 142.0872 173.3062 L 284.1743 86.5805 Z" fill="#ffffff" stroke="none" stroke-width="1"/></g><g id="kj653n6ri0" transform="translate(147.3196 92.5951)" v:unit="{&quot;strokeWidth&quot;:&quot;px&quot;}"><path d="M 0 81.5845 L 133.8327 0.0967 L 133.6974 0 L 0 81.5845 L 0 81.5845 Z" fill="#ffffff" stroke="none" stroke-width="1"/></g><g id="kj653n6si1" transform="translate(13.487 92.5951)" v:unit="{&quot;strokeWidth&quot;:&quot;px&quot;}"><path d="M 0.1353 0 L 0 0.0967 L 133.8327 81.5845 L 133.8327 81.5845 L 0.1353 0 Z" fill="#ffffff" stroke="none" stroke-width="1"/></g><g id="kj653n6si2" transform="translate(147.3196 174.1792)" v:unit="{&quot;strokeWidth&quot;:&quot;px&quot;}"><path d="M 0 0 Z" fill="#ffffff" stroke="none" stroke-width="1"/></g><g id="kj653n6si3" transform="translate(0 0)" v:unit="{&quot;strokeWidth&quot;:&quot;px&quot;}"><path d="M 290.1287 87.017 L 147.3196 0 L 4.5106 87.017 L 0 89.8789 L 0 269.9271 L 142.989 357.2352 L 147.5 360 L 152.0106 357.2352 L 295 269.9271 L 295 89.8303 Z M 285.6177 264.3007 L 151.8302 346.0793 L 151.8302 182.6194 L 285.7981 100.9863 Z M 142.8087 346.0793 L 8.8407 264.2521 L 8.8407 100.9863 L 142.8087 182.6194 Z M 13.6223 92.6919 L 147.3196 11.1559 L 281.017 92.6919 L 281.017 92.6919 L 147.3196 174.1792 L 147.3196 174.1792 L 13.487 92.6919 Z" fill="#444444" stroke="none" stroke-width="1"/></g><g id="kj653n6si4" transform="translate(147.9058 133.4844)" v:unit="{&quot;strokeWidth&quot;:&quot;px&quot;}"><path d="M 0 140.566 L 76.9073 93.6621 L 76.9073 0 L 0 46.8553 L 0 140.566 Z" fill="url(#L001001000D7D7D7100100626262100.grad)" fill-opacity="1" stroke="none" stroke-width="1"/></g><g id="kj653n6ti5" transform="translate(69.8257 133.4844)" v:unit="{&quot;strokeWidth&quot;:&quot;px&quot;}"><path d="M 0 93.6621 L 76.9073 140.566 L 76.9073 46.8553 L 0 0 L 0 93.6621 Z" fill="url(#L001001000D7D7D7100100626262100.grad)" fill-opacity="1" stroke="none" stroke-width="1"/></g><g id="kj653n6ti6" transform="translate(70.6373 85.513)" v:unit="{&quot;strokeWidth&quot;:&quot;px&quot;}"><path d="M 153.3638 46.71 L 76.6819 0 L 0 46.71 L 76.6819 93.5654 L 153.3638 46.71 Z" fill="url(#L001001000D7D7D7100100626262100.grad)" fill-opacity="1" stroke="none" stroke-width="1"/></g><g id="kj653n6ti7" transform="translate(147.3196 132.223)" v:unit="{&quot;strokeWidth&quot;:&quot;px&quot;}"><path d="M 0 42.102 L 68.9685 0.0968 L 68.8787 0 L 0 42.0534 L 0 42.102 Z" fill="#96bf3d" stroke="none" stroke-width="1"/></g><g id="kj653n6ti8" transform="translate(78.3507 132.223)" v:unit="{&quot;strokeWidth&quot;:&quot;px&quot;}"><path d="M 0.0902 0 L 0 0.0968 L 68.9685 42.102 L 68.9685 42.0534 L 0.0902 0 Z" fill="#96bf3d" stroke="none" stroke-width="1"/></g><g id="kj653n6ti9" transform="translate(147.3196 174.2764)" v:unit="{&quot;strokeWidth&quot;:&quot;px&quot;}"><path d="M 0 0 Z" fill="#96bf3d" stroke="none" stroke-width="1"/></g><g id="kj653n6uia" transform="translate(64.7736 79.159)" v:unit="{&quot;strokeWidth&quot;:&quot;px&quot;}"><path d="M 160.5811 47.4858 L 82.5456 0 L 4.5106 47.4858 L 0 50.2992 L 0 151.2369 L 78.0351 198.9167 L 82.5456 201.6815 L 87.0566 198.9167 L 165.1819 151.2369 L 165.1819 50.2992 Z M 156.0702 145.562 L 87.0566 187.7607 L 87.0566 103.5572 L 156.1608 61.4552 Z M 78.0351 187.7607 L 8.9309 145.562 L 8.9309 61.4552 L 78.0351 103.5572 Z M 13.6674 53.064 L 82.5456 11.156 L 151.4243 53.1126 L 151.4243 53.1126 L 82.5456 95.1174 L 82.5456 95.1174 L 13.5772 53.1608 Z" fill="#ffffff" stroke="none" stroke-width="1"/></g></g><defs><filter id="kj653n6phw.flt" x="-4.406779661016949%" y="-3.611111111111111%" width="109.83050847457628%" height="108.05555555555556%"><feGaussianBlur class="Shadow.eff" in="SourceAlpha" stdDeviation="5" result="shadow"/><feOffset class="Shadow.eff" in="shadow" dx="3" dy="3" result="shadow_offset"/><feFlood class="Shadow.eff" flood-color="#000" flood-opacity="0.5"/><feComposite class="Shadow.eff" in2="shadow_offset" operator="in" result="shadow_eff"/><feMerge class="Shadow.eff"><feMergeNode in="shadow_eff"/><feMergeNode in="SourceGraphic"/></feMerge></filter></defs></g></svg></svg>
