<?xml version='1.0' encoding='iso-8859-1'?>
<!DOCTYPE svg PUBLIC '-//W3C//DTD SVG 1.1//EN' 'http://www.w3.org/Graphics/SVG/1.1/DTD/svg11.dtd'>
<svg version="1.1" xmlns="http://www.w3.org/2000/svg" viewBox="0 0 439.48 439.48" xmlns:xlink="http://www.w3.org/1999/xlink" enable-background="new 0 0 439.48 439.48">
  <g>
    <path d="m146.566,141.888h65.674v9h-47.5c-4.143,0-7.5,3.358-7.5,7.5s3.357,7.5 7.5,7.5h110c4.143,0 7.5-3.358 7.5-7.5s-3.357-7.5-7.5-7.5h-47.5v-9h65.674c12.311,0 22.326-10.016 22.326-22.326v-94.348c0-12.311-10.016-22.326-22.326-22.326h-146.348c-12.311,0-22.326,10.015-22.326,22.326v94.348c-1.42109e-14,12.31 10.016,22.326 22.326,22.326zm146.348-15h-146.348c-4.04,0-7.326-3.287-7.326-7.326v-5.197h161v5.197c0,4.039-3.286,7.326-7.326,7.326zm-146.348-109h146.348c4.04-3.55271e-15 7.326,3.286 7.326,7.326v74.151h-161v-74.151c0-4.04 3.286-7.326 7.326-7.326z"/>
    <path d="m56.5,257.976c4.143,0 7.5-3.358 7.5-7.5v-19.693h148.24v19.693c0,4.142 3.357,7.5 7.5,7.5s7.5-3.358 7.5-7.5v-19.693h148.24v19.693c0,4.142 3.357,7.5 7.5,7.5s7.5-3.358 7.5-7.5v-27.193c0-4.142-3.357-7.5-7.5-7.5h-155.74v-34.498c0-4.142-3.357-7.5-7.5-7.5s-7.5,3.358-7.5,7.5v34.498h-155.74c-4.143,0-7.5,3.358-7.5,7.5v27.193c0,4.142 3.357,7.5 7.5,7.5z"/>
    <path d="m90.645,271.593h-68.29c-12.327,0-22.355,10.029-22.355,22.355v120.289c0,12.327 10.028,22.355 22.355,22.355h68.289c12.327,0 22.355-10.029 22.355-22.355v-120.289c0.001-12.326-10.027-22.355-22.354-22.355zm-68.29,15h68.289c4.056,0 7.355,3.3 7.355,7.355v103.645h-82.999v-103.645c0-4.055 3.3-7.355 7.355-7.355zm68.29,135h-68.29c-4.056,0-7.355-3.3-7.355-7.355v-1.645h83v1.645c0,4.055-3.3,7.355-7.355,7.355z"/>
    <path d="m253.885,271.593h-68.289c-12.327,0-22.355,10.029-22.355,22.355v120.289c0,12.327 10.028,22.355 22.355,22.355h68.289c12.327,0 22.355-10.029 22.355-22.355v-120.289c0-12.326-10.028-22.355-22.355-22.355zm-68.289,15h68.289c4.056,0 7.355,3.3 7.355,7.355v103.645h-83v-103.645c0-4.055 3.3-7.355 7.356-7.355zm68.289,135h-68.289c-4.056,0-7.355-3.3-7.355-7.355v-1.645h83v1.645c-0.001,4.055-3.301,7.355-7.356,7.355z"/>
    <path d="m417.125,271.593h-68.289c-12.327,0-22.355,10.029-22.355,22.355v120.289c0,12.327 10.028,22.355 22.355,22.355h68.289c12.327,0 22.355-10.029 22.355-22.355v-120.289c0-12.326-10.028-22.355-22.355-22.355zm-68.289,15h68.289c4.056,0 7.355,3.3 7.355,7.355v103.645h-83v-103.645c0-4.055 3.3-7.355 7.356-7.355zm68.289,135h-68.289c-4.056,0-7.355-3.3-7.355-7.355v-1.645h83v1.645c-0.001,4.055-3.3,7.355-7.356,7.355z"/>
  </g>
</svg>
