<?xml version="1.0" encoding="iso-8859-1"?>
<svg version="1.1" id="Capa_1" xmlns="http://www.w3.org/2000/svg" xmlns:xlink="http://www.w3.org/1999/xlink" x="0px" y="0px"
	 viewBox="0 0 480 480" style="enable-background:new 0 0 480 480;" xml:space="preserve">
<path id="XMLID_820_" d="M385,0H105H75C58.458,0,45,13.458,45,29.999v339.989c0,16.541,13.458,29.999,30,29.999h20v59.983
	c0,7.212,3.724,13.678,9.962,17.298c3.139,1.821,6.587,2.732,10.036,2.732c3.406,0,6.813-0.889,9.924-2.666L175,448.719
	l50.077,28.614c6.262,3.579,13.725,3.553,19.961-0.066c6.238-3.62,9.962-10.086,9.962-17.298v-59.983h130
	c27.57,0,50-22.429,50-49.998V49.998C435,22.429,412.57,0,385,0z M65,369.988V29.999c0-5.514,4.486-10,10-10h20v359.988H75
	C69.486,379.987,65,375.502,65,369.988z M235,459.969l-55.039-31.45c-3.074-1.757-6.848-1.757-9.922,0L115,459.97v-59.983h120
	V459.969z M415,349.988c0,16.541-13.458,29.999-30,29.999H115V19.999h270c16.542,0,30,13.458,30,29.999V349.988z M200.9,169.45
	l1.096,30.383c0.295,8.199,4.271,15.667,10.909,20.49c6.638,4.823,14.968,6.296,22.859,4.044L265,216.02l29.235,8.348
	c2.423,0.692,4.887,1.032,7.33,1.032c5.516,0,10.93-1.734,15.529-5.076c6.638-4.823,10.614-12.291,10.909-20.49l1.096-30.384
	l16.974-25.225c4.58-6.807,5.753-15.187,3.218-22.99c-2.536-7.802-8.41-13.892-16.116-16.705l-28.559-10.431L285.87,70.162
	c-5.059-6.459-12.665-10.164-20.87-10.164s-15.812,3.705-20.87,10.164l-18.746,23.937l-28.559,10.431
	c-7.706,2.814-13.58,8.903-16.116,16.705c-2.535,7.803-1.362,16.183,3.218,22.99L200.9,169.45z M199.73,127.417
	c0.365-1.125,1.366-3.155,3.956-4.101l31.241-11.41c1.753-0.64,3.292-1.758,4.442-3.227l20.506-26.185
	c1.7-2.171,3.94-2.496,5.124-2.496s3.424,0.324,5.124,2.496l20.506,26.185c1.15,1.469,2.689,2.587,4.442,3.227l31.241,11.41
	c2.59,0.946,3.591,2.975,3.956,4.101c0.366,1.125,0.75,3.356-0.79,5.644l-18.567,27.593c-1.042,1.548-1.629,3.357-1.696,5.222
	l-1.198,33.238c-0.1,2.756-1.721,4.334-2.679,5.03c-0.956,0.696-2.959,1.751-5.611,0.993l-31.981-9.132
	c-0.897-0.256-1.822-0.384-2.746-0.384s-1.849,0.128-2.746,0.384l-31.981,9.132c-2.652,0.759-4.654-0.297-5.611-0.993
	c-0.958-0.696-2.579-2.274-2.679-5.031l-1.198-33.237c-0.067-1.865-0.654-3.674-1.696-5.222l-18.567-27.593
	C198.98,130.772,199.364,128.542,199.73,127.417z M355,279.991c0,5.523-4.478,10-10,10H185c-5.522,0-10-4.477-10-10s4.478-10,10-10
	h160C350.522,269.991,355,274.468,355,279.991z M315,329.989c0,5.523-4.478,10-10,10h-80c-5.522,0-10-4.477-10-10s4.478-10,10-10h80
	C310.522,319.989,315,324.466,315,329.989z"/>
</svg>
