<svg fill="#000000" height="200px" width="200px" version="1.1" id="Capa_1" xmlns="http://www.w3.org/2000/svg" xmlns:xlink="http://www.w3.org/1999/xlink" viewBox="-48.75 -48.75 422.50 422.50" xml:space="preserve"><g id="SVGRepo_bgCarrier" stroke-width="0"></g><g id="SVGRepo_tracerCarrier" stroke-linecap="round" stroke-linejoin="round"></g><g id="SVGRepo_iconCarrier"> <path d="M297.992,40.603c-5.42-5.42-12.962-8.168-22.416-8.168c-5.83,0-12.268,1.079-19.121,3.114V6c0-3.313-2.686-6-6-6H24.872 c-3.313,0-6,2.687-6,6v313c0,3.314,2.687,6,6,6H214.36c0.213,0,0.423-0.012,0.63-0.033c0.029-0.004,0.058-0.01,0.088-0.014 c0.179-0.021,0.356-0.048,0.53-0.085c0.032-0.007,0.063-0.017,0.095-0.024c0.17-0.039,0.338-0.083,0.502-0.136 c0.041-0.013,0.08-0.03,0.121-0.044c0.151-0.053,0.302-0.109,0.448-0.174c0.052-0.022,0.102-0.049,0.152-0.073 c0.131-0.061,0.26-0.126,0.385-0.197c0.062-0.034,0.12-0.071,0.18-0.108c0.111-0.068,0.221-0.139,0.327-0.213 c0.064-0.046,0.127-0.094,0.189-0.143c0.097-0.074,0.191-0.15,0.283-0.23c0.063-0.055,0.126-0.111,0.186-0.169 c0.088-0.083,0.172-0.167,0.254-0.255c0.033-0.035,0.07-0.066,0.103-0.104l36.096-40.387c0.015-0.017,0.024-0.036,0.039-0.053 c0.212-0.242,0.402-0.5,0.573-0.773c0.024-0.039,0.049-0.078,0.072-0.117c0.164-0.277,0.307-0.567,0.426-0.871 c0.014-0.035,0.026-0.072,0.04-0.108c0.113-0.308,0.205-0.624,0.267-0.953c0.006-0.03,0.009-0.062,0.014-0.093 c0.059-0.335,0.095-0.678,0.095-1.029V155.408c2.332-2.461,4.628-4.963,6.855-7.491c1.474-1.672,1.898-4.023,1.104-6.107 l-3.693-9.67l24.05-13.654c0.869-0.494,1.602-1.197,2.131-2.047C307.784,82.892,311.93,54.542,297.992,40.603z M30.872,12h213.583 v27.908c-19.319,8.236-40.87,22.911-61.215,42.187c-0.713,0.676-1.249,1.516-1.561,2.447l-8.476,25.264l-10.306-1.647 c-2.138-0.347-4.294,0.494-5.642,2.188c-27.152,34.109-28.332,79.092-28.152,90.661L95.121,234.99c-2.344,2.343-2.344,6.142,0,8.484 c1.171,1.172,2.707,1.758,4.242,1.758c1.535,0,3.071-0.586,4.242-1.758l34.217-34.217c12.104-0.921,66.283-6.93,106.633-42.145 v105.5H214.36c-3.313,0-6,2.686-6,6V313H30.872V12z M237.046,284.613l-16.687,18.67v-18.67H237.046z M277.509,108.81l-27.193,15.439 c-2.578,1.464-3.7,4.59-2.644,7.358l4.229,11.071c-2.987,3.3-6.075,6.544-9.21,9.678c-28.613,28.614-68.598,39.173-90.952,42.984 l66.969-66.969c2.344-2.343,2.344-6.142,0-8.484c-2.342-2.344-6.143-2.344-8.484,0l-68.665,68.665 c1.289-16.787,6.073-45.04,22.979-67.98l11.791,1.885c2.904,0.46,5.703-1.235,6.636-4.017l9.614-28.655 c19.957-18.695,41.295-32.87,59.542-40.071c0.357-0.103,0.699-0.239,1.026-0.403c8.282-3.17,15.902-4.876,22.431-4.876 c6.156,0,10.843,1.565,13.931,4.653C298.789,58.371,294.068,81.723,277.509,108.81z"></path> </g></svg>
