<?xml version="1.0" encoding="iso-8859-1"?>
<svg version="1.1" id="Layer_1" xmlns="http://www.w3.org/2000/svg" xmlns:xlink="http://www.w3.org/1999/xlink" x="0px" y="0px"
	 viewBox="0 0 512.001 512.001" style="enable-background:new 0 0 512.001 512.001;" xml:space="preserve">
<g>
	<g>
		<path d="M220.555,262.677l-0.047-0.252l-7.964,1.597l-7.768,1.304c1.107,6.598,3.368,12.881,6.72,18.677l13.85-8.011
			C222.957,271.861,221.345,267.38,220.555,262.677z"/>
	</g>
</g>
<g>
	<g>
		<path d="M204.001,256h16.001c0-22.056,17.791-39.999,39.641-39.999v-16.001C229.469,200,204.001,225.121,204.001,256z"/>
	</g>
</g>
<g>
	<g>
		<path d="M316.001,96c20.436,0,37.919-12.842,44.831-30.875l67.88,13.576C431.802,93.139,444.655,104,460.001,104
			c17.645,0,32-14.356,32-32s-14.356-32-32-32c-14.348,0-26.521,9.493-30.568,22.527l-65.468-13.093
			c0.014-0.478,0.036-0.953,0.036-1.434C364.002,21.533,342.468,0,316.001,0c-26.468,0-48,21.533-48,48.001
			c0,20.365,12.755,37.798,30.691,44.758l-19.738,85.529c-6.08-1.483-12.423-2.288-18.953-2.288
			c-21.361,0-40.778,8.432-55.14,22.122l-54.46-47.652c3.57-6.708,5.601-14.354,5.601-22.469c0-26.468-21.533-48.001-48.001-48.001
			c-26.468,0-48,21.534-48,48.001c0,26.467,21.533,48,48,48c12.586,0,24.049-4.876,32.618-12.828l53.809,47.083
			c-9.079,12.975-14.427,28.743-14.427,45.746c0,16.968,5.326,32.708,14.371,45.668l-93.659,79.25
			c-8.58-8.005-20.08-12.918-32.712-12.918c-26.468,0-48.001,21.533-48.001,48c0,26.467,21.533,48.001,48.001,48.001
			s48-21.533,48-48.001c0-8.073-2.012-15.681-5.547-22.364l94.336-79.824c14.37,13.729,33.815,22.188,55.211,22.188
			c6.04,0,11.917-0.695,17.577-1.97l28.486,85.459c-15.151,6.127-26.478,19.768-29.344,36.283h-49.796
			C223.284,442.103,210.802,432,196.001,432c-17.645,0-32,14.356-32,32s14.356,32,32,32c15.105,0,27.789-10.522,31.132-24.62h49.436
			c3.561,22.976,23.474,40.62,47.431,40.62c26.468,0,48-21.533,48-48.001c0-26.468-21.532-48-48-48
			c-0.743,0-1.482,0.023-2.216,0.056l-29.032-87.096c27.822-12.539,47.247-40.514,47.247-72.96c0-0.481-0.028-0.955-0.036-1.434
			l65.469-13.094c4.047,13.035,16.219,22.529,30.567,22.529c17.645,0,32-14.356,32-32s-14.356-32-32-32
			c-15.346,0-28.198,10.862-31.287,25.299l-66.635,13.328c-5.411-24.335-21.925-44.529-43.944-54.96l20.241-87.706
			C314.916,95.977,315.456,96,316.001,96z M460.001,56.001c8.822,0,16.001,7.177,16.001,16c0,8.822-7.177,16-16.001,16
			C451.178,88,444,80.823,444,72C444,63.178,451.179,56.001,460.001,56.001z M108.001,159.999
			c-17.644,0-31.999-14.354-31.999-31.999c0-17.646,14.355-32,31.999-32c17.645,0,32,14.355,32,32
			C140.001,145.645,125.647,159.999,108.001,159.999z M68.002,448c-17.646,0-32-14.354-32-32c0-17.645,14.354-31.999,32-31.999
			c17.645,0,31.999,14.354,31.999,31.999S85.646,448,68.002,448z M196.001,480c-8.822,0-16-7.177-16-16.001c0-8.822,7.177-16,16-16
			c8.823,0,16,7.177,16,16C212.002,472.823,204.824,480,196.001,480z M324.001,432c17.645,0,32,14.354,32,31.999s-14.356,32-32,32
			c-17.646,0-32.001-14.354-32.001-32C292,446.355,306.356,432,324.001,432z M436.001,216c8.822,0,16.001,7.177,16.001,16
			c0,8.823-7.177,16-16.001,16c-8.821,0-16-7.177-16-16S427.179,216,436.001,216z M324.001,256c0,35.29-28.711,64-64,64
			c-35.289,0-64-28.71-64-64c0-35.29,28.71-64,64-64C295.291,192,324.001,220.71,324.001,256z M284.001,48.001
			c0-17.646,14.356-32,32-32c17.646,0,32.001,14.354,32.001,32c0,17.645-14.356,31.999-32.001,31.999
			C298.357,80,284.001,65.645,284.001,48.001z"/>
	</g>
</g>
<g>
	<g>
		<path d="M292.001,47.904h16c0-4.162,3.666-7.902,7.828-7.902V24C302.303,24,292.001,34.378,292.001,47.904z"/>
	</g>
</g>
<g>
	<g>
		<path d="M84.001,128.021h16.001c0-4.162,3.569-8.02,7.731-8.02V104C95.247,104,84.001,114.495,84.001,128.021z"/>
	</g>
</g>
<g>
	<g>
		<path d="M300.001,464.097h16c0-4.162,3.99-8.097,8.152-8.097v-16C310.627,440,300.001,450.571,300.001,464.097z"/>
	</g>
</g>
<g>
	<g>
		<path d="M44.001,416.235h16.001c0-4.162,4.031-8.234,8.193-8.234V392C54.668,392,44.001,402.709,44.001,416.235z"/>
	</g>
</g>
</svg>
