<svg version="1.1" xmlns="http://www.w3.org/2000/svg" xmlns:xlink="http://www.w3.org/1999/xlink" viewBox="-100.25 -100.25 701.77 701.77" xml:space="preserve"><g> <path d="M359.495,181.88l-40-40c-4.16-4.16-10.88-4.16-15.04,0L3.122,443.107c-4.16,4.16-4.16,10.88,0,15.04l40,40 c4.16,4.16,10.88,4.16,15.04,0L359.495,196.92C363.655,192.76,363.655,186.04,359.495,181.88z M50.695,475.64l-24.96-24.96 l236.907-236.907l24.96,24.96L50.695,475.64z M302.642,223.587l-24.96-24.96l34.24-34.24l24.96,24.96L302.642,223.587z"></path> <path d="M498.162,117.667l-38.187-38.293l24.533-48.213c2.667-5.227,0.64-11.627-4.587-14.4c-3.093-1.6-6.72-1.6-9.707,0 l-48.107,24.533l-38.187-38.08c-4.16-4.267-10.88-4.267-15.147-0.107c-2.453,2.347-3.52,5.76-3.093,9.067l7.787,54.507 l-49.173,25.493c-5.227,2.667-7.253,9.173-4.587,14.4c1.6,2.987,4.48,5.12,7.787,5.653l53.44,8.32l8.64,53.227 c0.747,4.587,4.267,8.107,8.853,8.853c0.533,0.107,1.067,0.107,1.6,0.107c4.053,0,7.68-2.24,9.493-5.76l25.067-48.853l54.4,7.68 c5.867,0.853,11.2-3.2,12.053-8.96C501.789,123.427,500.615,120.013,498.162,117.667z M430.215,105.933 c-4.48-0.747-8.96,1.6-10.987,5.653l-13.653,26.667l-4.693-28.8c-0.747-4.587-4.373-8.107-8.853-8.853l-28.907-4.48 l26.987-13.973c4.053-2.133,6.293-6.507,5.653-10.987l-4.267-30.293l21.013,21.12c3.307,3.307,8.32,4.053,12.373,2.027 l25.707-13.12l-13.12,25.813c-2.133,4.16-1.28,9.067,1.92,12.373l21.12,21.12L430.215,105.933z"></path> <path d="M378.375,395.747L353.522,382.2l-13.547-24.853c-3.733-6.827-14.933-6.827-18.667,0L307.762,382.2l-24.96,13.547 c-5.12,2.88-7.04,9.28-4.267,14.507c0.96,1.813,2.453,3.2,4.267,4.267l24.853,13.547l13.547,24.853 c2.88,5.12,9.28,7.04,14.507,4.267c1.813-0.96,3.2-2.453,4.267-4.267l13.547-24.853l24.853-13.547 c5.12-2.88,7.04-9.28,4.267-14.507C381.682,398.2,380.189,396.707,378.375,395.747z M340.615,411.107 c-1.813,0.96-3.307,2.453-4.267,4.267l-5.653,10.453l-5.76-10.453c-0.96-1.813-2.453-3.307-4.267-4.267l-10.453-5.76l10.453-5.76 c1.813-0.96,3.307-2.453,4.267-4.267l5.76-10.453l5.76,10.453c0.96,1.813,2.453,3.307,4.267,4.267l10.453,5.76L340.615,411.107z"></path> <path d="M37.469,148.067l45.547,24.96l24.853,45.547c2.88,5.12,9.28,7.04,14.507,4.267c1.813-0.96,3.2-2.453,4.267-4.267 l24.96-45.547l45.547-24.96c5.12-2.88,7.04-9.28,4.267-14.507c-0.96-1.813-2.453-3.2-4.267-4.267l-45.547-24.853l-24.96-45.547 c-3.733-6.827-14.933-6.827-18.667,0L83.122,104.44L37.575,129.4c-5.12,2.88-7.04,9.28-4.267,14.507 C34.269,145.613,35.762,147.107,37.469,148.067z M95.922,121.613c1.813-0.96,3.307-2.453,4.267-4.267L117.255,86.2l17.067,31.147 c0.96,1.813,2.453,3.307,4.267,4.267l31.147,17.067l-31.147,17.067c-1.813,0.96-3.307,2.453-4.267,4.267l-17.067,31.147 l-17.067-31.147c-0.96-1.813-2.453-3.307-4.267-4.267L64.775,138.68L95.922,121.613z"></path> </g></svg>
