<?xml version="1.0" encoding="iso-8859-1"?>
<!-- Generator: Adobe Illustrator 19.0.0, SVG Export Plug-In . SVG Version: 6.00 Build 0)  -->
<svg version="1.1" id="Layer_1" xmlns="http://www.w3.org/2000/svg" xmlns:xlink="http://www.w3.org/1999/xlink" x="0px" y="0px"
	 viewBox="0 0 512 512" style="enable-background:new 0 0 512 512;" xml:space="preserve">
<g>
	<g>
		<circle cx="256" cy="389.381" r="8.17"/>
	</g>
</g>
<g>
	<g>
		<path d="M471.149,54.468h-84.426c-4.512,0-8.17,3.658-8.17,8.17s3.658,8.17,8.17,8.17h84.426
			c13.516,0,24.511,10.995,24.511,24.511v253.277H16.34V95.319c0-13.516,10.995-24.511,24.511-24.511h84.426
			c4.512,0,8.17-3.658,8.17-8.17s-3.658-8.17-8.17-8.17H40.851C18.325,54.468,0,72.793,0,95.319v294.128
			c0,22.526,18.325,40.851,40.851,40.851h256v40.851c0,9.19,3.051,17.678,8.192,24.511h-98.086
			c5.141-6.832,8.192-15.321,8.192-24.511v-16.34c0-4.512-3.658-8.17-8.17-8.17c-4.512,0-8.17,3.658-8.17,8.17v16.34
			c0,13.516-10.995,24.511-24.511,24.511H98.041c-4.512,0-8.17,3.658-8.17,8.17s3.658,8.17,8.17,8.17h315.915
			c4.512,0,8.17-3.658,8.17-8.17s-3.658-8.17-8.17-8.17h-76.254c-13.516,0-24.511-10.995-24.511-24.511v-40.851h157.957
			c22.526,0,40.851-18.325,40.851-40.851V95.319C512,72.793,493.675,54.468,471.149,54.468z M495.66,389.447
			c0,13.516-10.995,24.511-24.511,24.511H40.851c-13.516,0-24.511-10.995-24.511-24.511v-24.511H495.66V389.447z"/>
	</g>
</g>
<g>
	<g>
		<path d="M321.362,0H190.638c-22.526,0-40.851,18.325-40.851,40.851v250.553c0,22.526,18.325,40.851,40.851,40.851h130.723
			c22.526,0,40.851-18.325,40.851-40.851V40.851C362.213,18.325,343.888,0,321.362,0z M345.872,291.404
			c0,13.516-10.995,24.511-24.511,24.511H190.638c-13.516,0-24.511-10.995-24.511-24.511v-13.617h179.745V291.404z M345.872,54.468
			H223.319c-4.512,0-8.17,3.658-8.17,8.17s3.658,8.17,8.17,8.17h122.553v190.638H166.128V70.809h24.511
			c4.512,0,8.17-3.658,8.17-8.17s-3.658-8.17-8.17-8.17h-24.511V40.851c0-13.516,10.995-24.511,24.511-24.511h130.723
			c13.516,0,24.511,10.995,24.511,24.511V54.468z"/>
	</g>
</g>
<g>
</g>
<g>
</g>
<g>
</g>
<g>
</g>
<g>
</g>
<g>
</g>
<g>
</g>
<g>
</g>
<g>
</g>
<g>
</g>
<g>
</g>
<g>
</g>
<g>
</g>
<g>
</g>
<g>
</g>
</svg>
