<?xml version="1.0" encoding="iso-8859-1"?>
<!-- Generator: Adobe Illustrator 19.0.0, SVG Export Plug-In . SVG Version: 6.00 Build 0)  -->
<svg version="1.1" id="Layer_1" xmlns="http://www.w3.org/2000/svg" xmlns:xlink="http://www.w3.org/1999/xlink" x="0px" y="0px"
	 viewBox="0 0 512 512" style="enable-background:new 0 0 512 512;" xml:space="preserve">
<g>
	<g>
		<g>
			<path d="M398.573,222.336c-2.052-6.331-7.422-10.858-14.009-11.814l-78.084-11.347l-34.919-70.749
				c-2.94-5.972-8.903-9.681-15.561-9.681c-6.657,0-12.621,3.709-15.56,9.675l-34.922,70.755l-78.084,11.347
				c-6.583,0.956-11.951,5.48-14.01,11.812c-2.052,6.322-0.371,13.136,4.392,17.786l56.505,55.075l-13.339,77.767
				c-1.127,6.557,1.516,13.061,6.9,16.974c3.042,2.212,6.602,3.336,10.185,3.335c2.758,0,5.53-0.666,8.091-2.012L256,354.541
				l69.837,36.719c2.479,1.302,5.271,1.991,8.072,1.991c3.692,0,7.219-1.146,10.204-3.315c5.375-3.909,8.021-10.41,6.9-16.97
				l-5.276-30.767c-0.756-4.401-4.939-7.357-9.335-6.602c-4.401,0.755-7.356,4.935-6.601,9.335l5.276,30.762
				c0.075,0.444-0.111,0.902-0.472,1.164c-0.536,0.391-0.925,0.259-1.248,0.089l-73.6-38.694c-2.354-1.237-5.166-1.238-7.524,0
				l-73.607,38.696c-0.393,0.207-0.882,0.171-1.243-0.091c-0.367-0.267-0.548-0.709-0.471-1.159l14.058-81.959
				c0.451-2.624-0.418-5.299-2.324-7.156l-59.545-58.038c-0.322-0.315-0.442-0.793-0.305-1.215c0.139-0.427,0.515-0.745,0.958-0.809
				l82.291-11.958c2.634-0.383,4.91-2.036,6.088-4.423l36.805-74.571c0.4-0.811,1.715-0.818,2.119,0.004l36.804,74.567
				c1.177,2.386,3.454,4.04,6.087,4.423l82.292,11.958c0.442,0.065,0.816,0.379,0.956,0.812c0.138,0.423,0.019,0.898-0.301,1.209
				l-59.546,58.041c-1.905,1.857-2.775,4.534-2.324,7.156l4.442,25.895c0.753,4.4,4.935,7.356,9.333,6.601
				c4.401-0.755,7.357-4.935,6.601-9.335l-3.723-21.706l56.505-55.078C398.949,235.469,400.63,228.653,398.573,222.336z"/>
			<path d="M46.482,247.916H8.084C3.619,247.916,0,251.535,0,256c0,4.465,3.619,8.084,8.084,8.084h38.398
				c4.466,0,8.084-3.62,8.084-8.084C54.566,251.535,50.947,247.916,46.482,247.916z"/>
			<path d="M503.916,247.916h-38.398c-4.466,0-8.084,3.62-8.084,8.084c0,4.465,3.619,8.084,8.084,8.084h38.398
				c4.466,0,8.084-3.62,8.084-8.084C512,251.535,508.382,247.916,503.916,247.916z"/>
			<path d="M102.133,398.436l-27.151,27.15c-3.158,3.156-3.158,8.275-0.001,11.432c1.579,1.579,3.648,2.368,5.717,2.368
				c2.068,0,4.138-0.789,5.715-2.367l27.151-27.151c3.158-3.156,3.158-8.275,0.001-11.432
				C110.408,395.279,105.289,395.279,102.133,398.436z"/>
			<path d="M425.585,74.981l-27.152,27.15c-3.158,3.157-3.158,8.276-0.001,11.433c1.579,1.579,3.648,2.368,5.717,2.368
				c2.069,0,4.138-0.789,5.715-2.369l27.152-27.15c3.158-3.156,3.158-8.275,0.001-11.432
				C433.86,71.823,428.741,71.822,425.585,74.981z"/>
			<path d="M256,457.434c-4.466,0-8.084,3.62-8.084,8.084v38.397c0,4.465,3.619,8.084,8.084,8.084c4.466,0,8.084-3.62,8.084-8.084
				v-38.397C264.084,461.053,260.466,457.434,256,457.434z"/>
			<path d="M256,54.567c4.466,0,8.084-3.62,8.084-8.084V8.085c0-4.465-3.619-8.084-8.084-8.084c-4.466,0-8.084,3.62-8.084,8.084
				v38.398C247.916,50.948,251.534,54.567,256,54.567z"/>
			<path d="M409.864,398.435c-3.155-3.157-8.274-3.157-11.432,0c-3.157,3.156-3.157,8.275,0.001,11.432l27.152,27.151
				c1.578,1.579,3.648,2.368,5.716,2.368s4.138-0.789,5.716-2.369c3.157-3.156,3.157-8.275-0.001-11.432L409.864,398.435z"/>
			<path d="M102.133,113.566c1.579,1.579,3.648,2.368,5.717,2.368c2.068,0,4.138-0.789,5.716-2.366
				c3.157-3.157,3.157-8.276,0-11.433L86.415,74.983c-3.156-3.157-8.274-3.157-11.433,0c-3.157,3.156-3.157,8.275,0,11.432
				L102.133,113.566z"/>
		</g>
	</g>
</g>
<g>
</g>
<g>
</g>
<g>
</g>
<g>
</g>
<g>
</g>
<g>
</g>
<g>
</g>
<g>
</g>
<g>
</g>
<g>
</g>
<g>
</g>
<g>
</g>
<g>
</g>
<g>
</g>
<g>
</g>
</svg>
