<svg height="32" viewBox="0 0 180 32" width="188" class="w-svg" xmlns="http://www.w3.org/2000/svg"><g fill="none" fill-rule="evenodd"><path d="M31.034 15.517c0 8.57-6.947 15.517-15.517 15.517S0 24.087 0 15.517 6.947 0 15.517 0s15.517 6.947 15.517 15.517" fill="#ecb360"/><path d="M26.897 13.966c0 7.712-6.022 13.965-13.449 13.965S0 21.678 0 13.966C0 6.253 6.021 0 13.448 0c7.427 0 13.449 6.253 13.449 13.966" fill="#d76835"/><path d="M27.931 12.414c0 6.856-5.326 12.414-11.897 12.414-6.57 0-11.896-5.558-11.896-12.414S9.464 0 16.034 0c6.57 0 11.897 5.558 11.897 12.414" fill="#d33a41"/><path d="M26.897 13.448c0 6.285-4.864 11.38-10.863 11.38S5.172 19.733 5.172 13.448c0-6.284 4.863-11.379 10.862-11.379 6 0 10.863 5.095 10.863 11.38" fill="#b6cb46"/><path d="M25.862 14.483c0 5.713-4.632 10.345-10.345 10.345-5.713 0-10.345-4.632-10.345-10.345 0-5.714 4.632-10.345 10.345-10.345 5.713 0 10.345 4.631 10.345 10.345" fill="#66ad4a"/><path d="M21.724 12.414a8.276 8.276 0 1 1-16.552 0 8.276 8.276 0 0 1 16.552 0" fill="#aed7dc"/><path d="M22.759 11.38a7.241 7.241 0 1 1-14.483 0 7.241 7.241 0 0 1 14.483 0" fill="#5bb1cf"/><path d="M22.759 11.896c0 3.714-2.78 6.725-6.207 6.725s-6.207-3.011-6.207-6.725c0-3.713 2.779-6.724 6.207-6.724s6.207 3.011 6.207 6.724" fill="#25a8c3"/><path d="M20.69 12.93c0 3.143-2.316 5.69-5.173 5.69-2.856 0-5.172-2.547-5.172-5.69 0-3.141 2.316-5.689 5.172-5.689 2.857 0 5.173 2.548 5.173 5.69"/><path d="M15.517 18.62c-2.856 0-5.172-2.547-5.172-5.69 0-3.141 2.316-5.689 5.172-5.689 2.857 0 5.173 2.548 5.173 5.69 0 3.142-2.316 5.69-5.173 5.69z" fill="#1b1a18"/><path d="M18.34 11.29c-.493.824-1.46 1.3-2.162 1.063-.701-.236-.871-1.096-.38-1.92.492-.823 1.46-1.298 2.162-1.062s.871 1.096.38 1.92" fill="#fffffe"/><g fill="#000"><path d="M157.671 21.334c-.247-.694-.37-1.573-.37-2.753 0-1.18.123-2.058.37-2.753.692-1.989 2.523-3.076 4.92-3.076 1.781 0 3.19.67 4.13 1.735.075.092.1.231-.024.324l-1.558 1.272c-.124.092-.248.07-.346-.046-.594-.625-1.212-.972-2.201-.972-1.063 0-1.88.486-2.226 1.458-.197.555-.247 1.203-.247 2.058 0 .856.05 1.527.247 2.083.347.948 1.163 1.434 2.226 1.434.99 0 1.607-.347 2.2-.972.1-.116.223-.116.347-.023l1.558 1.272c.123.093.099.209.024.324-.94 1.041-2.349 1.712-4.13 1.712-2.397 0-4.228-1.087-4.92-3.077M176.376 24.157c-.173 0-.297-.07-.396-.232l-3.016-4.673-1.608 1.735v2.938c0 .14-.098.232-.247.232h-2.275c-.148 0-.247-.093-.247-.232V8.657c0-.139.099-.231.247-.231h2.275c.149 0 .247.092.247.231v9.069l4.08-4.488c.149-.162.272-.232.47-.232h2.523c.148 0 .197.139.098.232l-3.783 4.071 4.352 6.616c.075.093.025.232-.123.232zM43.792 21.75h3.512c1.632 0 2.547-.879 2.547-2.197 0-1.295-.915-2.174-2.547-2.174h-3.512c-.098 0-.148.046-.148.138v4.095c0 .092.05.139.148.139zm3.363-6.777c1.484 0 2.4-.833 2.4-2.06 0-1.248-.916-2.081-2.4-2.081h-3.363c-.098 0-.148.046-.148.138v3.864c0 .092.05.139.148.139zm-6.429-6.316c0-.139.1-.231.247-.231h6.257c3.56 0 5.242 1.666 5.242 4.187 0 1.781-.89 2.8-1.954 3.331v.047c1.039.37 2.25 1.619 2.25 3.539 0 3.123-2.101 4.627-5.786 4.627h-6.009c-.148 0-.247-.093-.247-.232zM54.82 24.157c-.149 0-.248-.093-.248-.232V13.238c0-.14.1-.232.248-.232h2.275c.148 0 .247.093.247.232v.948h.025c.568-.856 1.582-1.434 3.09-1.434.94 0 1.88.347 2.498.925.124.116.149.209.05.324l-1.311 1.55c-.099.116-.223.139-.346.046-.544-.324-1.113-.532-1.756-.532-1.558 0-2.25 1.041-2.25 2.822v6.038c0 .14-.1.232-.247.232zM70.607 20.64c.198-.578.248-1.11.248-2.059 0-.948-.05-1.457-.248-2.058-.346-.926-1.112-1.458-2.225-1.458s-1.904.532-2.25 1.458c-.198.6-.248 1.11-.248 2.058 0 .949.05 1.48.248 2.06.346.925 1.137 1.457 2.25 1.457s1.879-.532 2.225-1.458zm-7.146.694c-.272-.786-.395-1.527-.395-2.753 0-1.226.123-1.966.395-2.753.668-1.942 2.497-3.076 4.92-3.076 2.4 0 4.23 1.134 4.897 3.076.272.787.396 1.527.396 2.753 0 1.226-.124 1.967-.396 2.753-.668 1.943-2.498 3.077-4.896 3.077-2.424 0-4.253-1.134-4.92-3.077zM85.668 24.157c-.148 0-.247-.093-.297-.232l-2.3-7.125h-.049l-2.324 7.125c-.05.14-.148.232-.297.232h-2.027c-.15 0-.248-.093-.297-.232l-3.759-10.687c-.05-.14.025-.232.173-.232h2.374c.173 0 .272.07.322.232l2.3 7.356h.049l2.275-7.356a.339.339 0 0 1 .321-.232h1.78c.149 0 .273.093.322.232l2.423 7.356h.05l2.176-7.356c.049-.162.148-.232.321-.232h2.374c.148 0 .222.093.173.232l-3.759 10.687c-.049.14-.148.232-.296.232zM92.239 22.653a.214.214 0 0 1 0-.324l1.41-1.388a.25.25 0 0 1 .346 0c.865.74 2.25 1.272 3.486 1.272 1.459 0 2.2-.555 2.2-1.318 0-.671-.42-1.088-1.977-1.227l-1.286-.115c-2.423-.231-3.66-1.388-3.66-3.285 0-2.151 1.657-3.516 4.624-3.516 1.855 0 3.413.578 4.476 1.365.124.092.124.23.05.323l-1.212 1.366c-.1.115-.223.115-.346.046-.742-.486-1.93-.926-3.116-.926s-1.805.486-1.805 1.157c0 .648.42 1.04 1.953 1.18l1.286.116c2.497.23 3.684 1.434 3.684 3.261 0 2.221-1.73 3.771-4.995 3.771-2.448 0-4.129-.902-5.118-1.758M111.444 16.384c-.321-.902-1.211-1.434-2.324-1.434-1.137 0-2.028.532-2.349 1.434-.1.277-.149.555-.149.948 0 .093.05.14.15.14h4.672c.1 0 .149-.047.149-.14 0-.393-.05-.67-.149-.948zm-7.195 4.927c-.248-.717-.42-1.573-.42-2.73 0-1.156.148-2.035.395-2.753.667-1.942 2.497-3.076 4.871-3.076 2.448 0 4.229 1.18 4.896 3.076.273.787.396 1.55.396 3.355 0 .139-.099.231-.272.231h-7.344c-.1 0-.149.047-.149.14 0 .323.075.6.174.855.395 1.087 1.335 1.689 2.67 1.689s2.201-.463 2.794-1.064c.124-.116.248-.14.371-.047l1.46 1.203c.123.093.123.208.024.324-1.014 1.11-2.695 1.897-4.896 1.897-2.522 0-4.303-1.156-4.97-3.1zM116.438 24.157c-.148 0-.247-.093-.247-.232V13.238c0-.14.099-.232.247-.232h2.275c.148 0 .247.093.247.232v.948h.025c.568-.856 1.582-1.434 3.09-1.434.94 0 1.88.347 2.498.925.124.116.148.209.05.324l-1.31 1.55c-.1.116-.223.139-.347.046-.544-.324-1.113-.532-1.755-.532-1.558 0-2.25 1.041-2.25 2.822v6.038c0 .14-.1.232-.248.232zM125.049 22.33c-.1-.093-.148-.232-.05-.348l1.534-1.666a.232.232 0 0 1 .346-.023c1.088.81 2.695 1.666 4.574 1.666 2.003 0 3.165-.949 3.165-2.267 0-1.134-.741-1.874-3.066-2.175l-.89-.115c-3.239-.417-5.07-1.874-5.07-4.488 0-2.846 2.226-4.742 5.688-4.742 2.102 0 4.105.624 5.44 1.572.124.093.149.186.05.324l-1.187 1.712c-.099.116-.223.139-.347.07-1.36-.833-2.62-1.226-4.03-1.226-1.706 0-2.646.879-2.646 2.105 0 1.087.816 1.827 3.091 2.128l.89.116c3.24.416 5.02 1.85 5.02 4.557 0 2.8-2.151 4.881-6.33 4.881-2.473 0-4.872-.925-6.182-2.082M142.685 24.353c-2.399 0-3.314-1.087-3.314-3.262v-5.875c0-.093-.05-.14-.148-.14h-.792c-.148 0-.247-.092-.247-.23v-1.55c0-.14.1-.232.247-.232h.792c.099 0 .148-.046.148-.139V9.871c0-.138.1-.23.247-.23h2.275c.149 0 .248.092.248.23v3.054c0 .093.05.14.148.14h1.583c.148 0 .247.092.247.23v1.55c0 .14-.1.232-.247.232h-1.583c-.099 0-.148.046-.148.139v5.783c0 .786.346 1.04 1.113 1.04h.618c.148 0 .247.093.247.232v1.85c0 .14-.1.232-.247.232zM152.876 20.409v-.856c0-.092-.05-.139-.149-.139h-1.978c-1.78 0-2.572.463-2.572 1.504 0 .925.717 1.388 2.052 1.388 1.707 0 2.647-.625 2.647-1.897zm.296 3.748c-.148 0-.247-.093-.247-.232v-.81h-.025c-.569.764-1.682 1.296-3.363 1.296-2.176 0-4.006-1.064-4.006-3.4 0-2.43 1.83-3.54 4.773-3.54h2.423c.099 0 .149-.046.149-.139V16.8c0-1.272-.644-1.85-2.647-1.85-1.335 0-2.15.346-2.72.763-.123.093-.271.07-.346-.046l-.914-1.527c-.075-.116-.05-.232.049-.3.964-.649 2.275-1.088 4.228-1.088 3.635 0 4.97 1.156 4.97 3.886v7.287c0 .14-.099.232-.247.232z"/></g></g></svg>