<svg width="1024" height="1024" fill="none" xmlns="http://www.w3.org/2000/svg"><rect width="1024" height="1024" rx="250" fill="url(#a)"/><path d="M546.914 715.1c-28.98 0-53.19-6.75-72.63-20.25-19.44-13.5-34.11-31.86-44.01-55.08-9.72-23.22-14.58-49.41-14.58-78.57 0-29.16 4.86-55.35 14.58-78.57 9.72-23.22 24.03-41.58 42.93-55.08s42.21-20.25 69.93-20.25c27.9 0 52.2 6.66 72.9 19.98 20.7 13.32 36.72 31.59 48.06 54.81 11.52 23.04 17.28 49.41 17.28 79.11 0 29.16-5.67 55.35-17.01 78.57-11.16 23.22-26.82 41.58-46.98 55.08-20.16 13.5-43.65 20.25-70.47 20.25Zm-143.64-8.1V318.2h73.98v189h-9.18V707h-64.8Zm131.76-57.24c15.84 0 28.8-3.96 38.88-11.88 10.08-7.92 17.55-18.54 22.41-31.86 4.86-13.5 7.29-28.44 7.29-44.82 0-16.2-2.52-30.96-7.56-44.28-5.04-13.5-12.87-24.21-23.49-32.13-10.44-8.1-23.85-12.15-40.23-12.15-15.3 0-27.72 3.69-37.26 11.07-9.36 7.38-16.2 17.73-20.52 31.05s-6.48 28.8-6.48 46.44c0 17.64 2.16 33.12 6.48 46.44s11.34 23.67 21.06 31.05c9.9 7.38 23.04 11.07 39.42 11.07Z" fill="#FCFCFC" fill-opacity=".96"/><path d="m474.284 694.85.57-.821-.57.821Zm-44.01-55.08-.923.386.003.006.92-.392Zm0-157.14-.923-.386.923.386Zm42.93-55.08-.582-.814.582.814Zm142.83-.27-.541.841.541-.841Zm48.06 54.81-.899.439.004.008.895-.447Zm.27 157.68-.899-.439-.003.006.902.433Zm-46.98 55.08-.557-.831.557.831ZM403.274 707h-1v1h1v-1Zm0-388.8v-1h-1v1h1Zm73.98 0h1v-1h-1v1Zm0 189v1h1v-1h-1Zm-9.18 0v-1h-1v1h1Zm0 199.8v1h1v-1h-1Zm128.25-100.98.939.343.002-.004-.941-.339Zm-.27-89.1-.937.35.001.004.936-.354Zm-23.49-32.13-.613.79.007.006.008.006.598-.802Zm-77.49-1.08-.612-.791-.007.006.619.785Zm-20.52 31.05-.952-.309.952.309Zm0 92.88-.952.308.952-.308Zm21.06 31.05-.605.796.007.006.598-.802Zm51.3 75.41c-28.823 0-52.822-6.712-72.06-20.071l-1.141 1.642c19.642 13.641 44.063 20.429 73.201 20.429v-2Zm-72.06-20.071c-19.275-13.386-33.829-31.592-43.66-54.651l-1.84.784c9.968 23.381 24.754 41.895 44.359 55.509l1.141-1.642Zm-43.658-54.645c-9.661-23.08-14.502-49.136-14.502-78.184h-2c0 29.272 4.879 55.596 14.657 78.956l1.845-.772ZM416.694 561.2c0-29.048 4.841-55.104 14.502-78.184l-1.845-.772c-9.778 23.36-14.657 49.684-14.657 78.956h2Zm14.502-78.184c9.655-23.063 23.853-41.269 42.589-54.652l-1.163-1.628c-19.063 13.617-33.485 32.131-43.271 55.508l1.845.772Zm42.589-54.652c18.7-13.357 41.796-20.064 69.349-20.064v-2c-27.887 0-51.411 6.793-70.512 20.436l1.163 1.628Zm69.349-20.064c27.734 0 51.841 6.618 72.359 19.821l1.082-1.682c-20.882-13.437-45.376-20.139-73.441-20.139v2Zm72.359 19.821c20.538 13.216 36.438 31.343 47.702 54.408l1.797-.878c-11.416-23.375-27.556-41.788-48.417-55.212l-1.082 1.682Zm47.706 54.416c11.441 22.882 17.175 49.094 17.175 78.663h2c0-29.831-5.787-56.359-17.386-79.557l-1.789.894Zm17.175 78.663c0 29.028-5.644 55.064-16.909 78.131l1.797.878c11.415-23.373 17.112-49.717 17.112-79.009h-2Zm-16.912 78.137c-11.087 23.069-26.632 41.288-46.635 54.682l1.113 1.662c20.318-13.606 36.093-32.107 47.325-55.478l-1.803-.866Zm-46.635 54.682c-19.978 13.378-43.27 20.081-69.913 20.081v2c26.996 0 50.684-6.797 71.026-20.419l-1.113-1.662ZM404.274 707V318.2h-2V707h2Zm-1-387.8h73.98v-2h-73.98v2Zm72.98-1v189h2v-189h-2Zm1 188h-9.18v2h9.18v-2Zm-10.18 1V707h2V507.2h-2Zm1 198.8h-64.8v2h64.8v-2Zm66.96-55.24c16.01 0 29.203-4.005 39.498-12.094l-1.236-1.572c-9.866 7.751-22.592 11.666-38.262 11.666v2Zm39.498-12.094c10.241-8.047 17.814-18.827 22.731-32.303l-1.879-.686c-4.803 13.164-12.17 23.624-22.088 31.417l1.236 1.572Zm22.733-32.307c4.904-13.623 7.349-28.68 7.349-45.159h-2c0 16.281-2.415 31.104-7.231 44.481l1.882.678Zm7.349-45.159c0-16.304-2.537-31.186-7.625-44.634l-1.871.708c4.992 13.192 7.496 27.83 7.496 43.926h2Zm-7.623-44.63c-5.102-13.663-13.042-24.537-23.829-32.582l-1.196 1.604c10.452 7.795 18.172 18.341 23.151 31.678l1.874-.7ZM573.177 484c-10.654-8.266-24.296-12.36-40.843-12.36v2c16.212 0 29.391 4.006 39.617 11.94l1.226-1.58Zm-40.843-12.36c-15.461 0-28.115 3.731-37.872 11.279l1.224 1.582c9.322-7.212 21.509-10.861 36.648-10.861v-2Zm-37.879 11.285c-9.542 7.522-16.482 18.052-20.853 31.526l1.903.618c4.27-13.166 11.009-23.336 20.188-30.574l-1.238-1.57Zm-20.853 31.526c-4.359 13.442-6.528 29.03-6.528 46.749h2c0-17.561 2.15-32.933 6.431-46.131l-1.903-.618Zm-6.528 46.749c0 17.719 2.169 33.307 6.528 46.748l1.903-.617c-4.281-13.198-6.431-28.57-6.431-46.131h-2Zm6.528 46.748c4.374 13.485 11.501 24.017 21.407 31.538l1.209-1.592c-9.534-7.239-16.446-17.407-20.713-30.563l-1.903.617Zm21.414 31.544c10.121 7.545 23.492 11.268 40.018 11.268v-2c-16.235 0-29.144-3.657-38.823-10.872l-1.195 1.604Z" fill="#fff"/><defs><linearGradient id="a" x1="512" y1="0" x2="512" y2="1024" gradientUnits="userSpaceOnUse"><stop offset=".161" stop-color="#3B82F6"/><stop offset="1" stop-color="#262BA3"/></linearGradient></defs></svg>