<svg xmlns="http://www.w3.org/2000/svg" viewBox="0 0 727.82 140.8"><defs><style>.cls-1{fill:#2A3775;}</style></defs><title>codacy-logo</title><g id="Layer_2" data-name="Layer 2"><g id="Layer_1-2" data-name="Layer 1"><g id="Group:_8_Objects_Image" data-name="Group: 8 Objects Image"><path class="cls-1" d="M255.65,94.71c-12.63,0-22.48-10.46-22.48-23.4S243.15,48,255.65,48A21.19,21.19,0,0,1,272.58,56l-6.69,6c-2.78-3-6.19-5.13-10.3-5.13-7.51,0-13.32,6.3-13.32,14.42s5.81,14.5,13.32,14.5c4.17,0,7.64-2.21,10.48-5.4L273,86.13C268.79,91.33,263.23,94.71,255.65,94.71Z"/><path class="cls-1" d="M325.09,71.31c0-12.8,10.17-23.33,22.74-23.33S370.5,58.51,370.5,71.31s-10.23,23.4-22.67,23.4S325.09,84.25,325.09,71.31Zm36.06,0c0-8.58-5.68-14.62-13.32-14.62s-13.39,6.11-13.39,14.62S340.12,86,347.83,86,361.15,79.89,361.15,71.31Z"/><path class="cls-1" d="M425.61,94.06V48.57H439.5c14,0,22.8,6.56,22.8,22.16,0,14.88-8.71,23.33-21,23.33Zm27.6-23.4c0-10.07-4.74-13.51-13.71-13.51h-4.79v28.4H441C449,85.55,453.21,79.89,453.21,70.66Z"/><path class="cls-1" d="M539.06,83.27H525.8l-3.09,10.79h-9.6l14.27-45.49h10L551.7,94.06h-9.6ZM527.89,76H537l-1.33-4.87c-1.2-4.49-2.71-9.81-3.22-12.74a120.43,120.43,0,0,1-3.15,12.74Z"/><path class="cls-1" d="M624.34,94.71c-12.63,0-22.48-10.46-22.48-23.4S611.84,48,624.34,48A21.22,21.22,0,0,1,641.27,56l-6.7,6c-2.78-3-6.19-5.13-10.29-5.13-7.52,0-13.33,6.3-13.33,14.42s5.81,14.5,13.33,14.5c4.17,0,7.64-2.21,10.48-5.4l7,5.72C637.48,91.33,631.92,94.71,624.34,94.71Z"/><path class="cls-1" d="M705.65,94.06V74.89l-12.5-26.32h10l5.49,13.71a38.3,38.3,0,0,1,1.45,4,32.65,32.65,0,0,1,1.46-4l6.12-13.71h10.11L714.62,75V94.06Z"/><path class="cls-1" d="M22.81,57.62a49.43,49.43,0,0,1,23-29.91L35.22,9.42A70.56,70.56,0,0,0,2.39,52.15Z"/><path class="cls-1" d="M57.71,22.78a49.5,49.5,0,0,1,12.74-1.66V0A70.59,70.59,0,0,0,52.24,2.36Z"/><path class="cls-1" d="M83.29,22.8a49.39,49.39,0,0,1,29.87,23l18.31-10.57A70.57,70.57,0,0,0,88.76,2.4Z"/><path class="cls-1" d="M0,70.4A70.52,70.52,0,0,0,2.38,88.6L22.8,83.14A49.07,49.07,0,0,1,21.13,70.4Z"/><path class="cls-1" d="M9.43,105.62A70.4,70.4,0,0,0,20.6,120.16l15-14.92a50.19,50.19,0,0,1-7.84-10.19Z"/><path class="cls-1" d="M35.22,131.38a69.93,69.93,0,0,0,35.17,9.42V119.68a49.06,49.06,0,0,1-24.6-6.6Z"/><path class="cls-1" d="M113.14,95.1A49.37,49.37,0,0,1,83.22,118l5.47,20.42a70.67,70.67,0,0,0,42.75-32.76Z"/><path class="cls-1" d="M138.51,89.32a70.61,70.61,0,0,0,.16-36.52l-20.48,5.47a49.34,49.34,0,0,1-.14,25.57Z"/></g></g></g></svg>