<svg class="hero-logo mt6 mb2 svelte-194ivpm" xmlns="http://www.w3.org/2000/svg" viewBox="0 0 111 24"><path fill="currentColor" d="M38.63 8.71v.36H35.8v-.36c0-1.74-1.09-2.43-2.82-2.43-1.74 0-2.53.69-2.53 1.81s.8 1.67 2.68 2.06l.51.11c3.26.69 5.32 1.81 5.32 4.6 0 2.79-2.24 4.71-5.76 4.71-3.51 0-6.01-1.95-6.01-5.25v-.22h2.82v.22c0 1.81 1.19 2.75 3.15 2.75 1.95 0 2.93-.87 2.93-2.1 0-1.27-1.01-1.7-2.97-2.14l-.51-.11c-3.19-.69-5-1.77-5-4.53 0-2.75 2.1-4.45 5.36-4.45 3.27.01 5.66 1.68 5.66 4.97zm7.82 4.13 5 6.44h-3.37L44.5 14.5l-1.48 1.27v3.51h-2.79V4.04h2.75v8.4l4.49-3.95h4.05l-5.07 4.35z"/><path fill="currentColor" d="m63.06 8.49-5.9 15.13h-2.97l1.52-3.66-4.49-11.47h2.97l2.86 7.78h.22l2.86-7.78h2.93zm.83 0h2.68v1.45h.22c.65-.94 1.7-1.77 3.58-1.77 2.57 0 4.89 2.17 4.89 5.68s-2.32 5.68-4.89 5.68c-1.88 0-2.93-.83-3.51-1.7h-.22v5.76h-2.75V8.49zm8.62 5.4c0-2.14-1.27-3.37-2.97-3.37-1.7 0-2.97 1.23-2.97 3.37s1.27 3.37 2.97 3.37c1.7-.01 2.97-1.24 2.97-3.37zm8.76-5.69c2.82 0 4.6 1.45 4.6 4.16v6.95h-2.61v-1.27h-.33c-.18.47-.9 1.56-2.9 1.56-2.21 0-3.95-1.23-3.95-3.48 0-2.21 1.74-3.37 4.16-3.37h2.97v-.62c0-1.01-.62-1.77-1.99-1.77-1.38 0-2.03.72-2.21 1.7l-2.53-.83C77 9.61 78.44 8.2 81.27 8.2zm-.69 9.16c1.52 0 2.61-.94 2.61-2.39v-.18h-2.75c-1.01 0-1.63.51-1.63 1.27s.61 1.3 1.77 1.3zM92.71 8.2c3 0 4.81 1.77 5.32 4.16l-2.64.58c-.14-1.3-.94-2.35-2.61-2.35s-2.9 1.23-2.9 3.29c0 2.1 1.27 3.29 2.9 3.29 1.67 0 2.46-.98 2.68-2.35l2.64.62c-.62 2.35-2.35 4.13-5.39 4.13-3.15 0-5.61-2.35-5.61-5.68 0-3.37 2.46-5.69 5.61-5.69zm12.85 4.64 5 6.44h-3.37l-3.62-4.78-1.48 1.27v3.51h-2.75V4.04h2.75v8.4l4.49-3.95h4.05l-5.07 4.35zm-89.5-1.34-4.09-2.04 4.09-2.04c.19-.1.31-.29.31-.5 0-.21-.12-.41-.31-.5l-5.09-2.54a.55.55 0 0 0-.5 0L5.39 6.42c-.19.09-.31.28-.31.5V12c0 .19.1.37.26.48.02.01.03.02.05.02l4.09 2.04-4.09 2.04c-.19.1-.31.29-.31.5 0 .21.12.41.31.5l5.09 2.54c.08.04.17.06.25.06.08 0 .17-.02.25-.06l5.09-2.54c.19-.1.31-.29.31-.5V12a.596.596 0 0 0-.32-.5zm-5.33-6.51 3.84 1.92-3.84 1.92-3.84-1.91 3.84-1.93zM6.2 7.81l3.28 1.64L6.2 11.1V7.81zM6.89 12l3.84-1.92L14.56 12l-3.84 1.92L6.89 12zm3.28 3.44v3.28l-3.28-1.64 3.28-1.64zm5.09 1.31-3.97 1.99V14.9l3.97-1.99v3.84z"/><path fill="currentColor" d="M10.73 24c-.09 0-.17-.02-.25-.06L.31 18.86a.567.567 0 0 1-.31-.5V5.65c0-.21.12-.41.31-.5L10.48.06a.55.55 0 0 1 .5 0l10.17 5.09c.19.1.31.29.31.5v12.71c0 .21-.12.41-.31.5l-10.17 5.09c-.09.03-.17.05-.25.05zm-9.62-5.98 9.61 4.81 9.61-4.81V6l-9.61-4.81L1.11 6v12.02z"/></svg>