<svg width="147" height="22" viewBox="0 0 147 22" fill="none" xmlns="http://www.w3.org/2000/svg">
<path d="M145.39 9.94944C144.513 8.8915 143.345 8.10892 142.023 7.70314C142.023 7.67416 142.023 7.64517 142.023 7.62343C142.023 3.7685 138.883 0.64543 134.999 0.638184C131.114 0.638184 127.967 3.75401 127.959 7.60894V7.61619C127.959 7.64517 127.959 7.6814 127.959 7.71039C124.257 8.86977 122.198 12.7899 123.366 16.4637C124.535 20.1375 128.485 22.1809 132.187 21.0215C133.253 20.6882 134.217 20.1085 135.013 19.3332C137.766 22.0504 142.213 22.0359 144.952 19.3042C147.507 16.768 147.69 12.7175 145.39 9.94944ZM139.95 19.594C137.043 19.5868 134.692 17.2535 134.692 14.3768C134.692 13.8913 134.298 13.5 133.808 13.5C133.319 13.5 132.925 13.8913 132.925 14.3768C132.925 15.6304 133.261 16.8695 133.911 17.9491C131.924 20.0505 128.595 20.152 126.477 18.1738C124.359 16.2028 124.257 12.8986 126.251 10.7972C127.697 9.27555 129.916 8.75383 131.895 9.47119L131.917 9.47844C132.114 9.54365 132.406 9.68133 132.494 9.75379C132.866 10.0726 133.421 10.0291 133.743 9.65959C134.064 9.29004 134.02 8.73934 133.648 8.42051C133.261 8.09443 132.647 7.8698 132.501 7.81908C131.727 7.53648 130.902 7.39156 130.077 7.39156C129.96 7.39156 129.851 7.39156 129.741 7.39881C129.865 4.5221 132.319 2.2903 135.225 2.41348C138.124 2.53666 140.373 4.97136 140.249 7.85531C140.176 9.46395 139.365 10.9422 138.051 11.8769C137.649 12.1595 137.562 12.7102 137.847 13.1015C138.131 13.5 138.686 13.587 139.081 13.3044C140.395 12.3696 141.352 11.0146 141.782 9.47119C144.506 10.4712 145.901 13.471 144.9 16.1738C144.126 18.2317 142.155 19.594 139.95 19.594Z" fill="#F3702A"/>
<path d="M0.701009 16.4637C1.42392 16.9057 2.92817 17.4202 4.09652 17.4202C5.29408 17.4202 5.78333 17.0072 5.78333 16.3695C5.78333 15.7319 5.39631 15.413 3.91397 14.9276C1.29249 14.0508 0.284785 12.6378 0.313994 11.1451C0.313994 8.80459 2.3367 7.0293 5.46933 7.0293C6.94437 7.0293 8.26607 7.36262 9.0474 7.74666L8.34639 10.4495C7.77682 10.1379 6.6888 9.7321 5.60077 9.7321C4.64419 9.7321 4.09652 10.1161 4.09652 10.761C4.09652 11.3552 4.59307 11.6596 6.14844 12.203C8.55815 13.0291 9.57316 14.2319 9.59506 16.0869C9.59506 18.4274 7.72571 20.152 4.09652 20.152C2.43893 20.152 0.963888 19.7897 0 19.2752L0.701009 16.4637Z" fill="#1B171B"/>
<path d="M23.459 13.4566C23.459 18.0579 20.1658 20.1738 16.7702 20.1738C13.0607 20.1738 10.2129 17.7536 10.2129 13.6885C10.2129 9.62342 12.9074 7.02931 16.982 7.02931C20.8668 7.02207 23.459 9.67414 23.459 13.4566ZM14.2802 13.587C14.2802 15.7464 15.1857 17.3695 16.8725 17.3695C18.4059 17.3695 19.3844 15.8478 19.3844 13.587C19.3844 11.7103 18.6615 9.80457 16.8725 9.80457C14.9812 9.79732 14.2802 11.732 14.2802 13.587Z" fill="#1B171B"/>
<path d="M24.8659 11.3184C24.8659 9.75327 24.8148 8.41274 24.7637 7.30408H28.1884L28.3709 9.02866H28.4513C28.9697 8.23159 30.2622 7.02148 32.3652 7.02148C34.9575 7.02148 36.9072 8.71707 36.9072 12.4198V19.8833H32.964V12.9053C32.964 11.2822 32.3944 10.1808 30.9705 10.1808C29.8825 10.1808 29.2326 10.9271 28.977 11.6445C28.8748 11.8764 28.8164 12.2604 28.8164 12.6227V19.8761H24.8805V11.3184H24.8659Z" fill="#1B171B"/>
<path d="M46.2316 19.8842L45.9979 18.6233H45.9249C45.0925 19.6305 43.8 20.1668 42.2957 20.1668C39.7254 20.1668 38.1992 18.3118 38.1992 16.3046C38.1992 13.0366 41.1566 11.4642 45.6401 11.4932V11.312C45.6401 10.6454 45.275 9.68887 43.3326 9.68887C42.0402 9.68887 40.6674 10.1236 39.8349 10.6381L39.1047 8.11647C39.9883 7.62373 41.7262 7.00781 44.0337 7.00781C48.2616 7.00781 49.6052 9.47874 49.6052 12.4352V16.8118C49.6052 18.0219 49.6563 19.174 49.7878 19.8697L46.2316 19.8842ZM45.7643 13.9423C43.6905 13.9134 42.084 14.4061 42.084 15.9205C42.084 16.9277 42.7558 17.4132 43.6393 17.4132C44.5594 17.4205 45.3846 16.8408 45.684 15.9713C45.7351 15.7539 45.7643 15.5292 45.7643 15.3046V13.9423Z" fill="#1B171B"/>
<path d="M51.6784 11.4492C51.6784 9.59425 51.6273 8.39139 51.5762 7.31172H54.9717L55.1031 9.62323H55.2053C55.8552 7.79721 57.4106 7.02912 58.6301 7.02912C58.9075 7.02188 59.185 7.03637 59.4625 7.07985V10.7609C59.112 10.6957 58.7542 10.6594 58.4037 10.6594C56.9506 10.6594 55.9648 11.4348 55.7019 12.6449C55.6508 12.9347 55.6289 13.2245 55.6289 13.5216V19.8982H51.6857L51.6784 11.4492Z" fill="#1B171B"/>
<path d="M69.7491 19.4208C69.1503 19.7324 67.8286 20.1454 66.1491 20.1454C62.3593 20.1454 59.8984 17.5948 59.8984 13.7906C59.8984 9.95739 62.5418 7.18213 66.6383 7.18213C67.9892 7.18213 69.1795 7.51545 69.8002 7.82703L69.2817 9.57335C68.7414 9.26176 67.8797 8.97916 66.6383 8.97916C63.7613 8.97916 62.2059 11.0878 62.2059 13.6891C62.2059 16.5731 64.068 18.3411 66.558 18.3411C67.8505 18.3411 68.7122 18.0078 69.3548 17.7252L69.7491 19.4208Z" fill="#1B171B"/>
<path d="M71.3867 1.62354H73.665V19.891H71.3867V1.62354Z" fill="#1B171B"/>
<path d="M87.8248 13.5579C87.8248 18.1592 84.6119 20.1664 81.5741 20.1664C78.1786 20.1664 75.5645 17.6954 75.5645 13.7608C75.5645 9.59428 78.3101 7.15234 81.7859 7.15234C85.3859 7.15234 87.8248 9.7537 87.8248 13.5579ZM77.8719 13.6883C77.8719 16.4129 79.4565 18.478 81.6837 18.478C83.8597 18.478 85.4954 16.4419 85.4954 13.6449C85.4954 11.5362 84.4293 8.85518 81.7348 8.85518C79.0403 8.85518 77.8719 11.3189 77.8719 13.6883Z" fill="#1B171B"/>
<path d="M100.163 16.4927C100.163 17.7753 100.192 18.9129 100.265 19.8911H98.2424L98.111 17.855H98.0599C97.4611 18.8549 96.1394 20.1737 93.9122 20.1737C91.9406 20.1737 89.582 19.0941 89.582 14.7174V7.43506H91.8603V14.3261C91.8603 16.6883 92.5905 18.2897 94.657 18.2897C96.1905 18.2897 97.2493 17.2318 97.6655 16.2318C97.8043 15.8623 97.8773 15.471 97.87 15.0725V7.43506H100.148V16.4927H100.163Z" fill="#1B171B"/>
<path d="M113.753 1.62354V16.6665C113.753 17.7751 113.782 19.0359 113.855 19.8837H111.804L111.701 17.7244H111.65C110.949 19.1157 109.423 20.1663 107.371 20.1663C104.341 20.1663 102.004 17.6157 102.004 13.8405C101.982 9.6957 104.574 7.15232 107.627 7.15232C109.547 7.15232 110.84 8.05084 111.409 9.05805H111.46V1.62354H113.753ZM111.468 12.4999C111.468 12.1811 111.438 11.8623 111.365 11.5507C111.03 10.1087 109.781 8.92762 108.072 8.92762C105.714 8.92762 104.312 10.9855 104.312 13.739C104.312 16.2607 105.56 18.3403 108.021 18.3403C109.547 18.3403 110.949 17.3404 111.365 15.6375C111.438 15.3187 111.475 14.9926 111.468 14.6593V12.4999Z" fill="#1B171B"/>
</svg>
