<svg xmlns="http://www.w3.org/2000/svg" viewBox="0 0 296.97 52.64"><defs><style>.cls-1{isolation:isolate;}.cls-2{fill:#ffcd52;mix-blend-mode:multiply;}.cls-3{fill:#d54400;}.cls-4{fill:#000051;}</style></defs><title>Asset 1</title><g class="cls-1"><g id="Layer_2" data-name="Layer 2"><g id="Layer_1-2" data-name="Layer 1"><path class="cls-2" d="M2.84,26.28,20.72,16a5.68,5.68,0,0,1,5.68,0L44.27,26.28a5.68,5.68,0,0,1,2.84,4.92V16a5.68,5.68,0,0,0-2.84-4.92L26.39.76a5.68,5.68,0,0,0-5.68,0L2.84,11.08A5.68,5.68,0,0,0,0,16v15.2A5.68,5.68,0,0,1,2.84,26.28Z"/><path class="cls-3" d="M2.78,41.52l.06,0L20.72,31.15a5.68,5.68,0,0,1,5.68,0L44.27,41.47l.06,0a5.67,5.67,0,0,0,2.78-4.87V31.19a5.68,5.68,0,0,0-2.84-4.92L26.39,16a5.68,5.68,0,0,0-5.68,0L2.84,26.28A5.68,5.68,0,0,0,0,31.19v5.45A5.67,5.67,0,0,0,2.78,41.52Z"/><path class="cls-4" d="M26.39,31.15a5.68,5.68,0,0,0-5.68,0L2.84,41.47l-.06,0,.06,0L20.72,51.88a5.68,5.68,0,0,0,5.68,0L44.27,41.56l.06,0-.06,0Z"/><path class="cls-4" d="M61.5,11.4H72q4.75,0,7.39,2.24A7.26,7.26,0,0,1,82,19.44a6.85,6.85,0,0,1-1.32,4.2A6.16,6.16,0,0,1,77.32,26a7.41,7.41,0,0,1,3.91,2.31A6.87,6.87,0,0,1,82.77,33a7.44,7.44,0,0,1-2.46,5.76A9.75,9.75,0,0,1,73.5,41h-12ZM67,15.93v8h3.34a7.12,7.12,0,0,0,4.48-1.19,3.71,3.71,0,0,0,1.49-3,3.32,3.32,0,0,0-1.25-2.73,6,6,0,0,0-3.8-1ZM67,36.5h4.75q5.32,0,5.32-4t-5.54-4.13H67Z"/><path class="cls-4" d="M98.91,18.74h5.32V41H98.91V37.38Q97.15,41.25,92,41.25a7,7,0,0,1-5.27-1.93,7.53,7.53,0,0,1-1.89-5.49V18.74h5.28V32.59a4.52,4.52,0,0,0,1,3.21A3.7,3.7,0,0,0,94,36.9a4.43,4.43,0,0,0,3.58-1.54,7.1,7.1,0,0,0,1.3-4.66Z"/><path class="cls-4" d="M113,18.74v3.82q1.89-4.09,6.86-4.09a7,7,0,0,1,5.28,2,7.94,7.94,0,0,1,1.93,5.71V41h-5.27V27.31A4.68,4.68,0,0,0,120.75,24a3.74,3.74,0,0,0-2.86-1.12,4.44,4.44,0,0,0-3.47,1.6A6.75,6.75,0,0,0,113,29.07V41h-5.27V18.74Z"/><path class="cls-4" d="M145.5,11.95l5.28-1V41H145.5V37.55a7.42,7.42,0,0,1-6.77,3.78,8.33,8.33,0,0,1-7-3.34,12.87,12.87,0,0,1-2.57-8.09,12.3,12.3,0,0,1,2.7-8.37,8.77,8.77,0,0,1,6.92-3.1,7.43,7.43,0,0,1,6.68,3.74ZM140,36.81a5,5,0,0,0,4-1.82,7.86,7.86,0,0,0,1.58-5.3,7,7,0,0,0-1.67-5.08A5.23,5.23,0,0,0,140,22.92a4.82,4.82,0,0,0-3.85,1.87A7.89,7.89,0,0,0,134.6,30a7.55,7.55,0,0,0,1.54,4.92A4.74,4.74,0,0,0,140,36.81Z"/><path class="cls-4" d="M154.51,41V9.95l5.28-1V41Z"/><path class="cls-4" d="M180.54,35.22V39.8a12.81,12.81,0,0,1-6.73,1.45,10.73,10.73,0,0,1-11.47-11.34q0-5.32,2.9-8.35a9.62,9.62,0,0,1,7.25-3,9.15,9.15,0,0,1,6.9,2.64q2.55,2.64,2.55,7.69a21,21,0,0,1-.31,3.17h-14a6,6,0,0,0,2.4,3.69A7.75,7.75,0,0,0,174.6,37,9.81,9.81,0,0,0,180.54,35.22Zm-3.6-7.17V27.4a5.62,5.62,0,0,0-1.16-3.45,3.86,3.86,0,0,0-3.14-1.3A4.47,4.47,0,0,0,169.35,24a7,7,0,0,0-1.78,4Z"/><path class="cls-4" d="M200.94,11.84h4.49l3,10.52L212,35.12q1.1-6.12,2.73-12.8L217.4,11.4H223l-7.57,29.66H209l-2.68-9.37q-1.1-3.74-1.87-6.6l-1-3.83-.22-1q-.62,3.08-3.08,11.44l-2.77,9.37H191L183.08,11.4h5.85l2.77,11q.7,2.95,1.41,6.12t1.06,4.84l.35,1.72q1.41-5.54,3.43-12.67Z"/><path class="cls-4" d="M223.82,24.78V19.89q2.51-1.54,7.22-1.54,9.06,0,9.06,8.45V41.06h-5.24V38.37q-1.54,2.86-5.81,2.86a6.85,6.85,0,0,1-5-1.85,6.28,6.28,0,0,1-1.87-4.66,5.9,5.9,0,0,1,2.38-5q2.38-1.8,6.86-1.8h3.26V26.58a3.82,3.82,0,0,0-1-2.82,4.58,4.58,0,0,0-3.3-1A11.64,11.64,0,0,0,223.82,24.78Zm10.82,6.69h-2.73a5.06,5.06,0,0,0-3.17.86,2.65,2.65,0,0,0-1.1,2.18q0,2.82,3.26,2.82a3.63,3.63,0,0,0,2.75-1,3.75,3.75,0,0,0,1-2.71Z"/><path class="cls-4" d="M249.88,22.71V34.06a2.57,2.57,0,0,0,2.82,2.86,5.5,5.5,0,0,0,3.08-.92v4.53a9.07,9.07,0,0,1-4,.75q-7.22,0-7.22-7.3V22.71h-3.34v-4h3.34V13.38h5.28v5.37h5.54v4Z"/><path class="cls-4" d="M262.26,30a7.45,7.45,0,0,0,1.91,5.1,6.48,6.48,0,0,0,5,1.94,9.19,9.19,0,0,0,5.06-1.5v4.58a11.35,11.35,0,0,1-5.81,1.36A11.15,11.15,0,0,1,260,38.2,11.27,11.27,0,0,1,256.84,30,11.72,11.72,0,0,1,260,21.74a11.24,11.24,0,0,1,8.6-3.34,11.56,11.56,0,0,1,5.54,1.23v4.66a9.1,9.1,0,0,0-5-1.41,6.64,6.64,0,0,0-5,1.94A7.2,7.2,0,0,0,262.26,30Z"/><path class="cls-4" d="M282.89,9.95V22.53q1.8-4,6.82-4a7,7,0,0,1,5.26,2,8.12,8.12,0,0,1,2,5.92V41.06h-5.28V27.37a4.74,4.74,0,0,0-1.08-3.3,3.6,3.6,0,0,0-2.79-1.19,4.81,4.81,0,0,0-3.41,1.45q-1.52,1.45-1.52,4.75v12h-5.28V9.95Z"/></g></g></g></svg>