<?xml version="1.0" encoding="iso-8859-1"?>
<!-- Generator: Adobe Illustrator 19.0.0, SVG Export Plug-In . SVG Version: 6.00 Build 0)  -->
<svg version="1.1" id="Layer_1" xmlns="http://www.w3.org/2000/svg" xmlns:xlink="http://www.w3.org/1999/xlink" x="0px" y="0px"
	 viewBox="0 0 504 504" style="enable-background:new 0 0 504 504;" xml:space="preserve">
<path style="fill:#F4EFEF;" d="M346.2,4h-276c-8,0-18,8.4-18,16v464c0,7.6,10.4,16,18,16H435c7.6,0,13.2-8,13.2-16V108L346.2,4z"/>
<path style="fill:#D8D8D8;" d="M343.8,8.4V10v71.2c0,13.6,15.2,26.8,28.8,26.8H445L343.8,8.4z"/>
<rect x="92.2" y="172" style="fill:#ACD9EA;" width="320" height="216"/>
<path style="fill:#F0C960;" d="M322.2,224c0.4,10.8-8.8,20-20,20c-10.8,0-20-8.8-20-20c0-10.8,8.8-20,20-20c4.4,0,8.4,1.2,11.6,3.6
	C313.8,207.6,321.8,211.6,322.2,224z"/>
<path style="fill:#54B265;" d="M406.2,388h-314V286.4l23.2-26l69.6,76c0.8,0.8,2,1.2,3.2,1.2s2-0.4,2.8-1.2c1.6-1.6,1.6-4,0-5.6
	l-37.6-37.6l56.4-58l118,118c0.8,0.8,2,1.2,2.8,1.2s2-0.4,2.8-1.2c1.6-1.6,1.6-4,0-5.6l-26-26l58.4-57.2l39.6,39.6L406.2,388z"/>
<path d="M408.2,396h-320c-2.4,0-4-1.6-4-4V176c0-2.4,1.6-4,4-4h268c2.4,0,4,1.6,4,4s-1.6,4-4,4h-264v208h312V180h-8
	c-2.4,0-4-1.6-4-4s1.6-4,4-4h12c2.4,0,4,1.6,4,4v216C412.2,394.4,410.2,396,408.2,396z"/>
<path d="M88.2,291.6c-1.2,0-2-0.4-2.8-1.2c-1.6-1.6-1.6-4,0-5.6l27.2-27.2c1.6-1.6,4-1.6,5.6,0s1.6,4,0,5.6L91,290.4
	C90.2,291.2,89,291.6,88.2,291.6z"/>
<path d="M188.2,337.6c-1.2,0-2-0.4-2.8-1.2l-73.2-73.2c-1.6-1.6-1.6-4,0-5.6s4-1.6,5.6,0l73.2,73.2c1.6,1.6,1.6,4,0,5.6
	C190.2,337.2,189.4,337.6,188.2,337.6z"/>
<path d="M157.4,286c-1.2,0-2-0.4-2.8-1.2c-1.6-1.6-1.6-4,0-5.6l52.4-52.4c1.6-1.6,4-1.6,5.6,0s1.6,4,0,5.6l-52.4,52.4
	C159.4,285.6,158.6,286,157.4,286z"/>
<path d="M313.8,315.6c-1.2,0-2-0.4-2.8-1.2c-1.6-1.6-1.6-4,0-5.6l52.4-52.4c1.6-1.6,4-1.6,5.6,0s1.6,4,0,5.6l-52.4,52.4
	C315.8,315.2,314.6,315.6,313.8,315.6z"/>
<path d="M331,354.4c-1.2,0-2-0.4-2.8-1.2L207,232c-1.6-1.6-1.6-4,0-5.6s4-1.6,5.6,0l121.2,121.2c1.6,1.6,1.6,4,0,5.6
	C333,354,331.8,354.4,331,354.4z"/>
<path d="M405,301.6c-1.2,0-2-0.4-2.8-1.2l-38.8-38.8c-1.6-1.6-1.6-4,0-5.6s4-1.6,5.6,0l38.8,38.8c1.6,1.6,1.6,4,0,5.6
	C407,301.6,406.2,301.6,405,301.6z"/>
<path d="M302.2,248c-13.2,0-24-10.8-24-24s10.8-24,24-24c4.8,0,9.6,1.6,13.6,4.4c2,1.2,2.4,3.6,0.8,5.6c-1.2,2-3.6,2.4-5.6,0.8
	c-2.8-2-6-2.8-9.2-2.8c-8.8,0-16,7.2-16,16s7.2,16,16,16s16-7.2,16-16c0-2.4,1.6-4,4-4s4,1.6,4,4C326.2,237.2,315.4,248,302.2,248z"
	/>
<path d="M431.8,504H71c-10.8,0-19.2-8.8-19.2-20V20C51.8,8.8,60.2,0,71,0h272c1.2,0,2,0.4,2.8,1.2l105.2,104
	c0.8,0.8,1.2,1.6,1.2,2.8v376C452.2,495.2,443,504,431.8,504z M71,8c-6.4,0-11.2,5.2-11.2,12v464c0,6.8,4.8,12,11.2,12h360.8
	c6.8,0,12.4-5.6,12.4-12V109.6L341.4,8H71z"/>
<path d="M412.2,112h-38.4c-16.8,0-33.6-17.6-33.6-34.8V8c0-2.4,1.6-4,4-4s4,1.6,4,4v69.2c0,12.8,13.6,26.8,25.6,26.8h38.4
	c2.4,0,4,1.6,4,4S414.2,112,412.2,112z"/>
<g>
</g>
<g>
</g>
<g>
</g>
<g>
</g>
<g>
</g>
<g>
</g>
<g>
</g>
<g>
</g>
<g>
</g>
<g>
</g>
<g>
</g>
<g>
</g>
<g>
</g>
<g>
</g>
<g>
</g>
</svg>
