<?xml version="1.0" encoding="iso-8859-1"?>
<svg version="1.1" id="Layer_1" xmlns="http://www.w3.org/2000/svg" xmlns:xlink="http://www.w3.org/1999/xlink" x="0px" y="0px"
	 viewBox="0 0 512 512" style="enable-background:new 0 0 512 512;" xml:space="preserve" fill="#eee">
	<g>
		<path d="M405.333,405.333H106.667
			c-11.797,0-21.333-9.557-21.333-21.333s9.536-21.333,21.333-21.333h298.667c11.797,0,21.333,9.557,21.333,21.333
			S417.131,405.333,405.333,405.333z M405.333,277.333H106.667c-11.797,0-21.333-9.557-21.333-21.333s9.536-21.333,21.333-21.333
			h298.667c11.797,0,21.333,9.557,21.333,21.333S417.131,277.333,405.333,277.333z M405.333,149.333H106.667
			c-11.797,0-21.333-9.557-21.333-21.333s9.536-21.333,21.333-21.333h298.667c11.797,0,21.333,9.557,21.333,21.333
			S417.131,149.333,405.333,149.333z"/>
	</g>
</svg>
