<svg xmlns="http://www.w3.org/2000/svg" width="200" height="200" stroke="#000" stroke-linecap="round" stroke-linejoin="round" fill="#fff" fill-rule="evenodd"><g stroke-width="10"><rect x="4.5" y="4.5" width="190" height="190" rx="15" stroke="#626262" fill="#626262"/><rect x="22" y="23" width="62.5" height="61.5" fill="none" rx="5" stroke="#fff"/></g><path stroke="#fff" stroke-width=".5" d="M43 44h21.5v19.5H43z"/><rect x="115" y="23" width="62.5" height="61.5" stroke-width="10" stroke="#fff" fill="none" rx="5"/><path stroke="#fff" stroke-width=".5" d="M136 44h21.5v19.5H136z"/><rect x="22" y="114" width="62.5" height="60.5" stroke-width="10" stroke="#fff" fill="none" rx="5"/><path stroke="#fff" d="M43 135h21.5v19.5H43zm93.1708-.1052h21.6585v21.2104h-21.6585zM157.8415 113.5H179.5v21.2104h-21.6585zm0 42.7896H179.5V177.5h-21.6585zM114.5 113.5h21.6585v21.2104H114.5zm0 42.7896h21.6585V177.5H114.5z" stroke-width=".5"/></svg>
