<svg xmlns="http://www.w3.org/2000/svg" height="215" width="160" version="1.1">
	<path fill="#626262" d="M16,0c-8.828,0-16,7.172-16,16v183c0,8.8438,7.172,16,16,16h128c8.8438,0,16-7.1562,16-16v-183c0-8.828-7.16-16-16-16zm46,10.5,36,0c4.4062,0,8,1.586,8,6s-3.5938,6-8,6h-36c-4.414,0-8-1.586-8-6s3.586-6,8-6zm-52,22.5h140v149h-140zm8.6094,13.109,0,43.852,43.852,0,0-43.852zm52.617,0,0,26.312,8.7734,0,0,8.7656-8.7734,0,0,17.539,8.7734,0,0-8.7656,8.7734,0,0-26.312-8.7734,0,0-8.7734,8.7734,0,0-8.7656zm8.774,52.618,0,8.773h8.7734v-8.7734zm0,8.7734-26.312,0,0-8.7734-17.539,0,0,8.7734,8.7734,0,0,8.7734,26.305,0,0,8.7656,8.7734,0,0-8.7656zm0,17.539,0,8.7734,8.7734,0,0-8.7734zm8.7734,0,8.7656,0,0-8.7656-8.7656,0zm8.7656,0,0,8.7734,17.539,0,0,8.7656,0,8.7734,17.547,0,0-8.7734-8.7734,0,0-8.7656,8.7734,0,0-8.7734,0-8.7656,8.7656,0,0-8.7734,0-8.7734-8.7656,0,0,8.7734-8.7734,0,0,8.7734,0,8.7656zm35.086,8.7734,0,8.7656,8.7656,0,0-8.7656zm0,17.539,0,8.7734,8.7656,0,0-8.7734zm0,8.7734-8.7734,0,0,8.7656,8.7734,0zm-17.547-8.7734-8.7656,0,0,8.7734-26.312,0,0,8.7656,35.078,0,0-8.7656zm-35.07,8.77v-8.7734h8.7734v-8.7734h-8.7734v-8.7656h-8.7734v8.7656,8.7734,8.7734zm8.7734-17.547,8.7656,0,0-8.7656-8.7656,0zm8.7656,0,0,8.7734,8.7734,0,0-8.7734zm-61.391-35.07h-8.7734v8.7734h8.7734zm-8.7734,0,0-8.7734-8.7656,0,0,8.7734zm70.164-61.391,0,43.852,43.852,0,0-43.852zm-70.164,8.766h26.312v26.312h-26.312zm78.938,0,26.312,0,0,26.312-26.312,0zm-70.164,8.7734,0,8.7734,8.7734,0,0-8.7734zm78.93,0,0,8.7734,8.7734,0,0-8.7734zm-17.539,35.078,0,8.7734,8.7734,0,0,8.7734,8.7656,0,0-8.7734,0-8.7734zm-78.93,26.312,0,43.852,43.852,0,0-43.852zm8.7656,8.7734,26.312,0,0,26.312-26.312,0zm8.7734,8.7656,0,8.7734,8.7734,0,0-8.7734zm43.85,46.21c5.3747,0,9.7344,4.3519,9.7344,9.7266s-4.3597,9.7344-9.7344,9.7344-9.7344-4.3597-9.7344-9.7344,4.3597-9.7266,9.7344-9.7266z"/>
</svg>
