<svg
  xmlns="http://www.w3.org/2000/svg"
  xmlns:xlink="http://www.w3.org/1999/xlink"
  aria-hidden="true"
  focusable="false"
  width="1.3em"
  style="
    -ms-transform: rotate(360deg);
    -webkit-transform: rotate(360deg);
    transform: rotate(360deg);
  "
  preserveAspectRatio="xMidYMid meet"
  viewBox="0 0 24 24"
>
  <g fill="none">
    <path
      fill-rule="evenodd"
      clip-rule="evenodd"
      d="M24 12c0 6.627-5.373 12-12 12S0 18.627 0 12S5.373 0 12 0s12 5.373 12 12zM12.43 8.859c-1.167.485-3.5 1.49-6.998 3.014c-.568.226-.866.447-.893.663c-.046.366.412.51 1.034.705c.085.027.173.054.263.084c.613.199 1.437.432 1.865.441c.389.008.823-.152 1.302-.48c3.268-2.207 4.955-3.322 5.061-3.346c.075-.017.179-.039.249.024c.07.062.063.18.056.212c-.046.193-1.84 1.862-2.77 2.726c-.29.269-.495.46-.537.504c-.094.097-.19.19-.282.279c-.57.548-.996.96.024 1.632c.49.323.882.59 1.273.856c.427.291.853.581 1.405.943c.14.092.274.187.405.28c.497.355.944.673 1.496.623c.32-.03.652-.331.82-1.23c.397-2.126 1.179-6.73 1.36-8.628a2.111 2.111 0 0 0-.02-.472a.506.506 0 0 0-.172-.325c-.143-.117-.365-.142-.465-.14c-.451.008-1.143.249-4.476 1.635z"
      fill="#626262"
    />
  </g>
  <rect x="0" y="0" width="24" height="24" fill="rgba(0, 0, 0, 0)" />
</svg>
