<svg xmlns="http://www.w3.org/2000/svg" width="393.521" height="330.214" viewBox="0 0 104.119 87.369"><path style="fill:#4285f4;stroke-width:.26458332" d="M12.605 61.77a3.21 3.21 0 0 0-3.212 3.213V92.69a3.21 3.21 0 0 0 3.212 3.212h1.25a5.285 5.285 0 0 0 5.105 3.924 5.285 5.285 0 0 0 5.1-3.924h5.442a2.117 2.117 0 0 0 2.117-2.117V63.888l-2.116-2.117z" transform="translate(25.601 -51.77)"/><path style="fill:#c8d1db;stroke-width:.26458332" d="M28.445 61.77c-.003 4.683-.002 9.366-.002 14.053l-4.4-2.487a.952.952 0 0 0-1.421.828v10.748a.953.953 0 0 0 1.42.827l4.4-2.487V95.902h12.035a3.048 3.048 0 0 0 3.047-3.048V64.808a3.048 3.048 0 0 0-3.048-3.037z" transform="translate(25.601 -51.77)"/><g aria-label="Blockly" style="font-style:normal;font-weight:400;font-size:10.58333302px;line-height:1.25;font-family:sans-serif;letter-spacing:0;word-spacing:0;fill:#000;fill-opacity:1;stroke:none;stroke-width:.26458332"><path d="M-10.298 123.042v-20.207h7.31q2.37 0 4.091 1.58 1.75 1.553 1.75 3.924 0 1.439-.762 2.54-.734 1.1-1.975 1.665v.113q1.495.508 2.455 1.75.96 1.241.96 2.878 0 2.484-1.835 4.12-1.806 1.637-4.29 1.637zm2.596-11.543h4.713q1.468 0 2.343-.96.903-.987.903-2.144t-.875-2.117q-.847-.96-2.258-.96h-4.826zm0 9.06h5.221q1.496 0 2.427-1.044.932-1.045.932-2.286 0-1.242-.96-2.258-.96-1.044-2.512-1.044h-5.108zM8.603 123.042H6.007v-20.207h2.596zM12.788 110.879q2.004-2.117 5.108-2.117 3.104 0 5.108 2.117 2.004 2.088 2.004 5.249 0 3.16-2.004 5.277-2.004 2.089-5.108 2.089-3.104 0-5.108-2.089-2.004-2.116-2.004-5.277t2.004-5.25zm1.919 8.89q1.355 1.354 3.189 1.354t3.16-1.354q1.356-1.383 1.356-3.641t-1.355-3.613q-1.327-1.382-3.161-1.382t-3.19 1.382q-1.326 1.355-1.326 3.613t1.327 3.64zM33.716 123.494q-3.105 0-5.108-2.089-2.004-2.116-2.004-5.277t2.004-5.25q2.003-2.116 5.108-2.116 2.314 0 3.838 1.129t2.23 2.85l-2.371.988q-1.072-2.596-3.866-2.596-1.722 0-3.048 1.41-1.299 1.412-1.299 3.585t1.299 3.584q1.326 1.411 3.048 1.411 2.906 0 4.007-2.596l2.314.988q-.705 1.693-2.286 2.85-1.552 1.129-3.866 1.129zM44.708 102.835v12.446l5.983-6.068h3.33v.113l-5.39 5.39 5.644 8.213v.113h-3.132l-4.347-6.519-2.088 2.088v4.431h-2.596v-20.207zM58.323 123.042h-2.596v-20.207h2.596zM65.156 129.138h-2.68l3.217-6.97-5.701-12.955h2.822l4.12 9.935h.057l4.007-9.935h2.823z" style="font-style:normal;font-variant:normal;font-weight:400;font-stretch:normal;font-size:28.22222137px;font-family:'Product Sans';-inkscape-font-specification:'Product Sans, Normal';font-variant-ligatures:normal;font-variant-caps:normal;font-variant-numeric:normal;font-feature-settings:normal;text-align:start;writing-mode:lr-tb;text-anchor:start;fill:#5f6368;fill-opacity:1;stroke-width:.26458332" transform="translate(20.298 -51.77)"/></g></svg>