<?xml version="1.0" encoding="UTF-8"?>
<svg width="256px" height="256px" viewBox="0 0 256 256" version="1.1" xmlns="http://www.w3.org/2000/svg" xmlns:xlink="http://www.w3.org/1999/xlink" preserveAspectRatio="xMidYMid">
<!--
The CLJS logo is released under a Creative Commons CC0 license: https://creativecommons.org/publicdomain/zero/1.0/
For more information about the logo, please see: https://github.com/cljs/logo
-->
    <g>
				<circle fill="#FFFFFF" cx="128" cy="128" r="128"></circle>
				<path d="M74.8127854,158.743379 C67.3899543,158.743379 61.7789954,156.580822 57.9214612,152.255708 C54.0639269,147.930594 52.1351598,141.73516 52.1351598,133.669406 C52.1351598,125.428311 54.1223744,119.115982 58.1552511,114.673973 C62.1881279,110.231963 67.9744292,108.010959 75.6310502,108.010959 C80.7744292,108.010959 85.4502283,108.946119 89.5415525,110.874886 L86.3853881,119.232877 C82.0018265,117.5379 78.3780822,116.661187 75.5141553,116.661187 C67.0392694,116.661187 62.8310502,122.272146 62.8310502,133.494064 C62.8310502,138.988128 63.883105,143.079452 65.9872146,145.884932 C68.0913242,148.631963 71.1890411,150.034703 75.2803653,150.034703 C79.8977169,150.034703 84.2812785,148.865753 88.4310502,146.586301 L88.4310502,155.645662 C86.5607306,156.756164 84.573516,157.515982 82.4694064,157.983562 C80.3652968,158.509589 77.7936073,158.743379 74.8127854,158.743379 Z M117.128767,157.866667 L106.725114,157.866667 L106.725114,89.0155251 L117.128767,89.0155251 L117.128767,157.866667 Z M118.803523,230.699113 L120.401826,230.841067 L120.401826,246.151652 L118.508303,245.999874 C57.4635476,241.106746 9.93607306,189.884492 9.93607306,128.292237 C9.93607306,66.6999829 57.4635476,15.4777293 118.508303,10.5846014 L120.401826,10.4328233 L120.401826,25.6849603 L118.803523,25.8269149 C66.0568798,30.5116496 25.1324201,74.9568678 25.1324201,128.23379 C25.1324201,181.522362 66.0688412,226.01544 118.803523,230.699113 Z" fill="#96CA4B"></path>
				<path d="M133.786301,179.609132 C130.688584,179.609132 128.058447,179.258447 126.012785,178.49863 L126.012785,170.257534 C128,170.783562 130.045662,171.075799 132.149772,171.075799 C136.591781,171.075799 138.812785,168.562557 138.812785,163.536073 L138.812785,108.887671 L149.216438,108.887671 L149.216438,164.237443 C149.216438,169.263927 147.872146,173.121461 145.242009,175.693151 C142.553425,178.323288 138.754338,179.609132 133.786301,179.609132 Z M138.169863,95.9707763 C138.169863,94.1004566 138.69589,92.6977169 139.689498,91.7041096 C140.683105,90.7105023 142.144292,90.1844749 144.073059,90.1844749 C145.884932,90.1844749 147.346119,90.7105023 148.339726,91.7041096 C149.333333,92.6977169 149.859361,94.1589041 149.859361,95.9707763 C149.859361,97.7242009 149.333333,99.1269406 148.339726,100.178995 C147.346119,101.172603 145.884932,101.69863 144.073059,101.69863 C142.20274,101.69863 140.741553,101.172603 139.689498,100.178995 C138.637443,99.1269406 138.169863,97.7242009 138.169863,95.9707763 Z M203.689498,143.956164 C203.689498,148.748858 201.936073,152.372603 198.487671,154.944292 C194.980822,157.515982 190.012785,158.743379 183.525114,158.743379 C176.978995,158.743379 171.777169,157.749772 167.80274,155.762557 L167.80274,146.761644 C173.530594,149.391781 178.907763,150.736073 183.875799,150.736073 C190.246575,150.736073 193.461187,148.807306 193.461187,144.949772 C193.461187,143.722374 193.110502,142.67032 192.409132,141.852055 C191.707763,141.03379 190.538813,140.157078 188.902283,139.280365 C187.265753,138.403653 185.044749,137.410046 182.122374,136.299543 C176.511416,134.136986 172.653881,131.915982 170.666667,129.753425 C168.679452,127.590868 167.685845,124.726941 167.685845,121.278539 C167.685845,117.07032 169.380822,113.855708 172.770776,111.517808 C176.160731,109.179909 180.719635,108.069406 186.564384,108.069406 C192.292237,108.069406 197.727854,109.238356 202.871233,111.576256 L199.481279,119.408219 C194.221005,117.245662 189.778995,116.13516 186.155251,116.13516 C180.661187,116.13516 177.914155,117.713242 177.914155,120.810959 C177.914155,122.330594 178.615525,123.616438 180.076712,124.726941 C181.479452,125.778995 184.635616,127.240183 189.428311,129.110502 C193.461187,130.688584 196.383562,132.091324 198.253881,133.377169 C200.065753,134.663014 201.410046,136.182648 202.345205,137.877626 C203.221918,139.514155 203.689498,141.559817 203.689498,143.956164 Z M135.598174,10.4328233 L137.491697,10.5846014 C198.536452,15.4777293 246.063927,66.6999829 246.063927,128.292237 C246.063927,189.884492 198.536452,241.106746 137.491697,245.999874 L135.598174,246.151652 L135.598174,230.899515 L137.196477,230.75756 C189.931159,226.073888 230.86758,181.58081 230.86758,128.292237 C230.86758,75.0036651 189.931159,30.5105873 137.196477,25.8269149 L135.598174,25.6849603 L135.598174,10.4328233 Z" fill="#5F7FBF"></path>
		</g>
</svg>
