<svg width="1em" height="1em" xmlns="http://www.w3.org/2000/svg" viewBox="0 0 300 300" preserveAspectRatio="xMidYMid ">
<style>
.dm {fill: #272727;}
@media (prefers-color-scheme: dark) {
  .dm {fill: white;}
}
</style>
<g transform="translate(0.000000,300.000000) scale(0.100000,-0.100000)" fill="currentColor" stroke="none">
<path d="M320 2470 c-20 -20 -20 -33 -20 -984 0 -870 2 -964 16 -970 9 -3 532
-6 1163 -6 879 0 1150 3 1159 12 16 16 15 75 0 85 -7 4 -510 10 -1118 13
l-1105 5 -5 917 c-5 902 -5 917 -25 932 -27 21 -41 20 -65 -4z"></path>
<path d="M2451 1943 l-114 -115 -86 86 c-51 50 -95 86 -106 86 -13 0 -141
-121 -360 -340 -187 -187 -348 -340 -357 -340 -9 0 -85 68 -168 150 -84 83
-158 150 -166 150 -7 0 -124 -111 -259 -246 -260 -261 -271 -276 -220 -310 23
-15 27 -15 50 0 13 9 112 104 219 211 106 107 200 195 207 195 8 0 83 -68 166
-150 84 -83 161 -150 170 -150 10 0 171 153 358 340 198 198 348 340 359 340
10 0 55 -36 99 -80 45 -44 87 -79 93 -78 7 2 80 69 164 150 140 137 151 150
148 180 -3 31 -6 33 -43 34 -38 2 -45 -3 -154 -113z"></path>
</g>
</svg>
