<svg xmlns="http://www.w3.org/2000/svg" xmlns:xlink="http://www.w3.org/1999/xlink" width="294" height="295.2">
	<defs>
		<clipPath id = "clip1">
			<path d = "M -0.8 -0.8
			           L  3.3 -0.8
			           L  3.3  2.7
			           L -0.8  2.7 z"/>
		</clipPath>
		<clipPath id = "clip2">
			<path d = "M 0 0 L 287 0 L 287 287 L 0 287 z"/>
		</clipPath>	</defs>
	<g transform="translate(3.5,4.2)">
	<g transform="scale(70,-82)">
	<g transform="translate(0.8,-2.7)">
		<rect x="-0.8" y="-0.8" width="4.1" height="3.5" style="stroke:none;fill:white" opacity="0.7" />
		<line x1="-0.8" y1= "1.0" x2="3.3" y2="1.0"      style="stroke:#C0C0C0;stroke-width:0.07;fill:none" />
		<line x1="-0.8" y1= "2.0" x2="3.3" y2="2.0"      style="stroke:#C0C0C0;stroke-width:0.07;fill:none" />
		<line x1= "1.0" y1="-0.8" x2="1.0" y2="2.7"      style="stroke:#C0C0C0;stroke-width:0.07;fill:none" />
		<line x1= "2.0" y1="-0.8" x2="2.0" y2="2.7"      style="stroke:#C0C0C0;stroke-width:0.07;fill:none" />
		<line x1= "3.0" y1="-0.8" x2="3.0" y2="2.7"      style="stroke:#C0C0C0;stroke-width:0.07;fill:none" />
		<g clip-path = "url(#clip1)">
			<polyline points="-1,-1.3 1.7,1.2  2.4,0.5 4,2.1"           style="fill:none;stroke:#0000ff;stroke-width:0.1;stroke-linejoin:round;" />
			<polyline points="-1,2.0  1.3,-0.3 2.1,0.5 4,-1.4"          style="fill:none;stroke:#ff0000;stroke-width:0.1;stroke-linejoin:round;" />
			<polyline points="-1,1.1 -0.2,0.3  1,1.5   1.3,1.2 3.7,4.0" style="fill:none;stroke:#00ff00;stroke-width:0.1;stroke-linejoin:round;" />
		</g>
		<rect x="-0.8" y="-0.8" width="4.1" height="3.5" style="stroke:black;stroke-width:0.10;fill:none" />
		<line x1="-0.8" y1= "0.0" x2="3.3" y2="0.0"      style="stroke:black;stroke-width:0.07;fill:none" />
		<line x1= "0.0" y1="-0.8" x2="0.0" y2="2.7"      style="stroke:black;stroke-width:0.07;fill:none" />
	</g>
	</g>
	</g>
</svg>


