<svg xmlns="http://www.w3.org/2000/svg" width="5em" height="5em" viewBox="0 0 128 128">
<style>
.dm {fill: black;}
@media (prefers-color-scheme: dark) {
  .dm {fill: white;}
}
</style>
<path fill="#0868ac" d="M27.758 20.421c-7.352 10.565-6.437 24.312-.82 35.54l.411.798l.263.506l.164.291l.293.524q.261.46.536.919l.306.504q.304.489.622.973l.265.409q.439.656.901 1.301l.026.033l.152.205q.401.552.821 1.093l.309.393q.374.469.759.934l.29.346c.345.406.698.812 1.057 1.208l.021.022l.041.045c.351.383.71.758 1.075 1.133l.344.347q.424.425.858.841l.351.334q.579.547 1.176 1.07l.018.016l.205.174q.527.457 1.068.902l.442.353q.441.353.89.696l.477.361q.495.364.999.717l.363.258l.101.072c.318.22.645.431.97.642l.42.28c.5.315 1.007.628 1.519.93l.42.237q.565.326 1.14.639l.631.326l.816.424l.188.091l.334.161q.64.307 1.293.599l.273.122q.747.327 1.508.628l.368.144q.705.274 1.423.527l.179.062c.524.184 1.054.353 1.587.52l.383.114c.542.164 1.079.358 1.638.462c35.553 6.483 45.88-21.364 45.88-21.364c-8.674 11.3-24.069 14.28-38.656 10.962c-.553-.125-1.089-.298-1.628-.456l-.406-.124a45 45 0 0 1-1.568-.51l-.215-.077a50 50 0 0 1-1.382-.513l-.388-.152q-.753-.297-1.492-.62l-.298-.133a55 55 0 0 1-1.259-.585l-.364-.175c-.327-.159-.65-.328-.974-.495l-.649-.341q-.591-.316-1.167-.654l-.394-.219a58 58 0 0 1-1.52-.932l-.41-.273a41 41 0 0 1-1.081-.719l-.349-.245a54 54 0 0 1-1.022-.738l-.453-.343q-.466-.355-.922-.721l-.411-.33q-.582-.476-1.149-.969l-.126-.105a55 55 0 0 1-1.208-1.098l-.34-.328a33 33 0 0 1-.868-.851l-.34-.34q-.543-.555-1.065-1.126l-.053-.057a42 42 0 0 1-1.08-1.229l-.283-.336a45 45 0 0 1-.777-.961l-.285-.355a53 53 0 0 1-.898-1.195c-8.098-11.047-11.008-26.283-4.535-38.795m17.081-1.626c-5.316 7.65-5.028 17.893-.88 25.983a34 34 0 0 0 2.351 3.925c.796 1.143 1.68 2.501 2.737 3.418c.383.422.784.834 1.193 1.238l.314.311q.594.579 1.218 1.132l.05.043l.012.012c.462.405.939.794 1.423 1.178l.323.252c.486.372.981.738 1.489 1.087l.043.033l.68.447l.322.213q.544.35 1.104.676l.156.092q.484.278.975.545l.347.18l.682.354l.103.047q.701.347 1.424.663l.314.13q.579.246 1.167.473l.5.184c.356.132.712.253 1.072.373l.484.155c.511.158 1.017.359 1.549.448c27.45 4.547 33.787-16.588 33.787-16.588c-5.712 8.228-16.775 12.153-28.58 9.089a35 35 0 0 1-1.555-.449l-.467-.151a29 29 0 0 1-1.087-.374l-.491-.183a39 39 0 0 1-1.171-.473l-.315-.133a33 33 0 0 1-1.432-.666l-.718-.365l-.414-.213q-.46-.25-.909-.514l-.217-.123a31 31 0 0 1-1.1-.672l-.332-.221l-.712-.472a37 37 0 0 1-1.484-1.085l-.334-.264c-5.167-4.079-9.263-9.655-11.21-15.977c-2.041-6.557-1.601-13.917 1.935-19.891m14.847-.518c-3.134 4.612-3.442 10.341-1.267 15.435c2.293 5.407 6.992 9.648 12.477 11.66l.682.235l.3.096c.323.102.644.22.978.282c15.157 2.929 19.268-7.777 20.362-9.354c-3.601 5.185-9.653 6.43-17.079 4.627a19 19 0 0 1-1.796-.555a22 22 0 0 1-2.134-.886a22 22 0 0 1-3.741-2.282c-6.645-5.042-10.772-14.659-6.436-22.492"/>
<path class="dm" fill="currentColor" d="M66.359 96.295h-4.226a.56.56 0 0 0-.517.417l-1.5 6.94l-1.5 6.94a.554.554 0 0 1-.516.417h-2.991c-2.959 0-2.617-2.047-2.011-4.851l.018-.085l.066-.354l.012-.066l.135-.72l.145-.771l.154-.785l.682-3.332l.683-3.332a.336.336 0 0 0-.341-.419h-4.337a.55.55 0 0 0-.514.418l-.933 4.424l-.932 4.425l-.002.006l-.086.412c-1.074 4.903-.79 9.58 5.048 9.727l.17.003h9.163a.554.554 0 0 0 .516-.417l1.976-9.289l1.976-9.29c.049-.23-.103-.417-.338-.418m-45.256-.049h-4.64a.56.56 0 0 0-.521.416l-.44 1.942l-.44 1.942c-.051.229.098.416.333.416h4.676a.56.56 0 0 0 .518-.417l.425-1.941l.425-1.941c.049-.229-.101-.417-.336-.417m-1.346 6.044H15.08a.56.56 0 0 0-.521.416l-.657 2.91l-.656 2.909l-.183.834l-.631 2.97l-.63 2.971c-.049.229-.15.599-.225.821c0 0-.874 2.6-2.343 2.57l-.184-.004l-1.271-.023h-.001a.56.56 0 0 0-.524.407l-.485 2.039l-.484 2.038c-.055.228.093.416.326.42c.833.01 2.699.031 3.828.031c3.669 0 5.604-2.033 6.843-7.883l1.451-6.714l1.361-6.297c.049-.227-.103-.415-.337-.415m86.117-1.574l-.194-.801l-.191-.82l-.097-.414c-.38-1.477-1.495-2.328-3.917-2.328l-3.77-.004l-3.472-.005h-3.907a.55.55 0 0 0-.515.417l-.173.816l-.204.964l-.057.271l-1.759 8.24l-1.67 7.822c-.05.23-.066.512-.038.626c.028.115.479.209.713.209h3.524c.235 0 .532-.042.66-.094s.317-.513.364-.742l.626-3.099l.627-3.1l.001-.005l.084-.413l.76-3.56l.671-3.144a.555.555 0 0 1 .515-.417l11.089-.005c.235.002.383-.185.33-.414m14.275-7.24l-.854.003h-3.549a.9.9 0 0 0-.667.353l-7.849 11.498c-.132.194-.283.166-.335-.062l-.578-2.533a.56.56 0 0 0-.522-.416h-5.045c-.235 0-.374.184-.31.409l2.261 7.921c.064.226.069.596.011.824l-.985 3.833c-.059.228.085.413.32.413h4.987a.58.58 0 0 0 .532-.413l.986-3.833a2.5 2.5 0 0 1 .363-.755l12.742-16.911c.142-.188.065-.341-.169-.339zm-40.086 9.919v-.004a.514.514 0 0 1-.499.441h-6.397c-.222 0-.334-.15-.301-.336l.006-.015l-.004.002l.003-.021l.029-.109c.611-1.624 1.855-2.69 4.194-2.69c2.634-.001 3.148 1.285 2.969 2.732m-1.877-7.384c-8.211 0-10.157 4.984-11.249 10.015c-1.091 5.128-.998 9.921 7.5 9.921h1.03l.256-.001h.06l1.02-.003h.018c2.244-.009 4.495-.026 5.406-.033a.55.55 0 0 0 .509-.42l.344-1.681l.067-.327l.41-2.006a.335.335 0 0 0-.341-.418h-7.639c-3.039 0-3.941-.807-3.608-3.181H84.18l-.001.001l.008-.001a.5.5 0 0 0 .445-.315l.029-.106l-.001.001c1.813-6.839 1.293-11.445-6.474-11.446m-38.81 7.358l-.116.409v.001l-.922 3.268l-.922 3.267a.6.6 0 0 1-.543.411h-4.88c-3.702 0-4.604-2.896-3.702-7.166c.901-4.368 2.668-7.083 6.312-7.358c4.98-.376 5.976 3.126 4.773 7.168m3.348 7.105s2.301-5.588 2.823-8.814c.713-4.319-1.45-10.585-9.804-10.585c-8.306 0-11.914 5.981-13.29 12.484c-1.376 6.55.427 12.293 8.686 12.246l6.516-.024l6.089-.022a.59.59 0 0 0 .534-.414l1.061-4.046c.059-.228-.084-.414-.319-.416l-1.017-.006l-1.017-.006c-.199-.001-.313-.131-.289-.302zm41.12-3.741a.28.28 0 1 1-.56.001a.28.28 0 0 1 .56-.001"/>
</svg>
