<svg xmlns="http://www.w3.org/2000/svg" viewBox="0 0 55.562 71.438" height="270" width="210"><g transform="matrix(2.48042 0 0 2.46266 -422.596 -158.649)" fill="green"><ellipse cx="-170.78" cy="-173.804" rx="1.469" ry="4.35" transform="matrix(-.24842 -.96865 -.83487 .55045 0 0)"/><ellipse transform="matrix(-.923 -.38482 -.06311 .998 0 0)" ry="4.35" rx="1.469" cy="-6.224" cx="-196.296"/><ellipse transform="matrix(.24842 -.96865 .83487 .55045 0 0)" ry="4.35" rx="1.469" cy="198.261" cx="40.64"/></g><path d="M18.435 22.454a8.447 8.386 0 00-8.443 8.386 8.447 8.386 0 008.446 8.386 8.447 8.386 0 008.447-8.386 8.447 8.386 0 00-8.447-8.386 8.447 8.386 0 00-.003 0zm18.632 0a8.447 8.386 0 00-8.443 8.386 8.447 8.386 0 008.446 8.386 8.447 8.386 0 008.447-8.386 8.447 8.386 0 00-8.447-8.386 8.447 8.386 0 00-.002 0zM8.332 32.713a8.447 8.386 0 00-7.455 8.329 8.447 8.386 0 008.446 8.385 8.447 8.386 0 008.447-8.385 8.447 8.386 0 00-.002-.134 10.24 10.167 0 01-9.436-8.196zm38.899.072a10.24 10.167 0 01-9.437 8.196 8.447 8.386 0 00-.001.134A8.447 8.386 0 0046.24 49.5a8.447 8.386 0 008.445-8.385 8.447 8.386 0 00-7.455-8.33zm-19.45 2.438a10.24 10.167 0 01-8.446 5.758 8.447 8.386 0 000 .095 8.447 8.386 0 008.446 8.386 8.447 8.386 0 008.447-8.386 8.447 8.386 0 00-.001-.095 10.24 10.167 0 01-8.446-5.758zm-9.343 10.33a10.24 10.167 0 01-8.446 5.758 8.447 8.386 0 000 .095 8.447 8.386 0 008.446 8.385 8.447 8.386 0 008.447-8.385 8.447 8.386 0 00-.001-.095 10.24 10.167 0 01-8.446-5.758zm18.632 0a10.24 10.167 0 01-8.446 5.758 8.447 8.386 0 00-.001.095 8.447 8.386 0 008.447 8.385 8.447 8.386 0 008.447-8.385 8.447 8.386 0 00-.002-.095 10.24 10.167 0 01-8.446-5.758zm-9.29 10.35a10.24 10.167 0 01-8.445 5.758 8.447 8.386 0 000 .095 8.447 8.386 0 008.446 8.386 8.447 8.386 0 008.447-8.386 8.447 8.386 0 00-.001-.095 10.24 10.167 0 01-8.446-5.758z" fill="red"/></svg>